<?xml version="1.0" encoding="UTF-8"?>
<!DOCTYPE svg PUBLIC "-//W3C//DTD SVG 1.1//EN" "http://www.w3.org/Graphics/SVG/1.1/DTD/svg11.dtd">
<svg xmlns="http://www.w3.org/2000/svg" version="1.1" width="680px" height="367px" style="shape-rendering:geometricPrecision; text-rendering:geometricPrecision; image-rendering:optimizeQuality; fill-rule:evenodd; clip-rule:evenodd" xmlns:xlink="http://www.w3.org/1999/xlink">
<g><path style="opacity:0.752" fill="#f4e29c" d="M 308.5,165.5 C 308.667,146.83 308.5,128.164 308,109.5C 301.924,108.524 295.758,108.19 289.5,108.5C 290.172,107.733 291.005,107.066 292,106.5C 296.667,107.833 301.333,107.833 306,106.5C 307,107.167 308,107.833 309,108.5C 309.829,127.671 309.662,146.671 308.5,165.5 Z"/></g>
<g><path style="opacity:0.745" fill="#f3dd8a" d="M 381.5,108.5 C 373.097,107.866 365.097,108.533 357.5,110.5C 357.5,110.833 357.5,111.167 357.5,111.5C 357.672,112.492 357.338,113.158 356.5,113.5C 356.657,112.127 356.49,110.793 356,109.5C 354.388,112.859 352.888,116.192 351.5,119.5C 351.155,113.808 353.322,109.475 358,106.5C 363.263,107.514 368.597,107.514 374,106.5C 376.866,106.3 379.366,106.967 381.5,108.5 Z"/></g>
<g><path style="opacity:0.75" fill="#f0d97b" d="M 387.5,108.5 C 402.661,107.339 417.994,107.172 433.5,108C 434.823,112.6 434.823,117.1 433.5,121.5C 433.817,117.298 433.483,113.298 432.5,109.5C 417.676,108.504 402.676,108.171 387.5,108.5 Z"/></g>
<g><path style="opacity:0.75" fill="#f5e29b" d="M 458.5,111.5 C 457.373,110.878 456.373,110.045 455.5,109C 449.843,108.501 444.176,108.334 438.5,108.5C 439.172,107.733 440.005,107.066 441,106.5C 445.41,106.817 449.91,106.983 454.5,107C 456.751,107.748 458.084,109.248 458.5,111.5 Z"/></g>
<g><path style="opacity:0.747" fill="#eed671" d="M 544.5,122.5 C 544.8,117.901 544.467,113.401 543.5,109C 527.17,108.5 510.837,108.333 494.5,108.5C 494.811,107.522 495.478,106.855 496.5,106.5C 512.456,107.319 528.456,107.819 544.5,108C 545.167,109 545.833,110 546.5,111C 545.862,114.935 545.196,118.769 544.5,122.5 Z"/></g>
<g><path style="opacity:0.941" fill="#eac94e" d="M 639.5,107.5 C 639.577,108.75 640.244,109.583 641.5,110C 635.548,109.804 629.548,109.47 623.5,109C 624.056,108.617 624.389,108.117 624.5,107.5C 629.4,106.2 634.4,106.2 639.5,107.5 Z"/></g>
<g><path style="opacity:1" fill="#e9c84a" d="M 242.5,107.5 C 248.425,107.192 254.259,107.525 260,108.5C 260.5,122.496 260.667,136.496 260.5,150.5C 268.507,150.334 276.507,150.5 284.5,151C 287.167,156.333 287.167,161.667 284.5,167C 270.167,167.667 255.833,167.667 241.5,167C 240.944,166.617 240.611,166.117 240.5,165.5C 240.333,146.83 240.5,128.164 241,109.5C 241.717,108.956 242.217,108.289 242.5,107.5 Z M 243.5,111.5 C 247.833,111.5 252.167,111.5 256.5,111.5C 256.171,125.677 256.504,139.677 257.5,153.5C 257.5,154.167 257.833,154.5 258.5,154.5C 265.982,155.492 273.648,155.825 281.5,155.5C 281.5,158.167 281.5,160.833 281.5,163.5C 268.92,163.822 256.42,163.489 244,162.5C 243.5,145.503 243.333,128.503 243.5,111.5 Z"/></g>
<g><path style="opacity:1" fill="#e6c53a" d="M 289.5,108.5 C 295.758,108.19 301.924,108.524 308,109.5C 308.5,128.164 308.667,146.83 308.5,165.5C 308.389,166.117 308.056,166.617 307.5,167C 301.448,167.79 295.448,167.624 289.5,166.5C 288.172,147.004 288.172,127.671 289.5,108.5 Z M 305.5,111.5 C 305.833,128.846 305.5,146.179 304.5,163.5C 300.682,163.33 296.682,163.33 292.5,163.5C 292.5,146.167 292.5,128.833 292.5,111.5C 296.833,111.5 301.167,111.5 305.5,111.5 Z"/></g>
<g><path style="opacity:0.948" fill="#e3bf23" d="M 197.5,108.5 C 203.537,108.171 209.537,108.504 215.5,109.5C 210.015,110.167 204.681,110.833 199.5,111.5C 197.952,111.179 197.285,110.179 197.5,108.5 Z"/></g>
<g><path style="opacity:0.988" fill="#f2db87" d="M 221.5,116.5 C 220.281,114.058 218.781,111.724 217,109.5C 217.135,111.425 217.302,113.425 217.5,115.5C 216.751,114.469 216.085,113.302 215.5,112C 210.177,111.501 204.844,111.334 199.5,111.5C 204.681,110.833 210.015,110.167 215.5,109.5C 209.537,108.504 203.537,108.171 197.5,108.5C 203.234,107.814 209.067,107.148 215,106.5C 219.389,108.389 221.556,111.722 221.5,116.5 Z"/></g>
<g><path style="opacity:1" fill="#e6c335" d="M 474.5,108.5 C 479.5,108.5 484.5,108.5 489.5,108.5C 489.5,127.833 489.5,147.167 489.5,166.5C 484.105,166.733 478.772,166.4 473.5,165.5C 472.018,162.668 472.685,161.668 475.5,162.5C 479.115,162.386 482.782,162.719 486.5,163.5C 487.497,146.008 487.83,128.341 487.5,110.5C 483.833,110.5 480.167,110.5 476.5,110.5C 476.5,119.5 476.5,128.5 476.5,137.5C 472.672,137.746 470.005,135.746 468.5,131.5C 465.58,125.788 466.58,125.121 471.5,129.5C 473.655,130.552 473.988,129.886 472.5,127.5C 473.131,121.036 473.797,114.703 474.5,108.5 Z"/></g>
<g><path style="opacity:0.998" fill="#eccd5c" d="M 586.5,108.5 C 584.786,109.738 582.786,110.405 580.5,110.5C 575.797,110.437 571.13,110.771 566.5,111.5C 564.847,111.34 563.514,110.674 562.5,109.5C 570.253,105.907 578.253,105.574 586.5,108.5 Z"/></g>
<g><path style="opacity:0.972" fill="#efd26e" d="M 624.5,107.5 C 624.389,108.117 624.056,108.617 623.5,109C 629.548,109.47 635.548,109.804 641.5,110C 640.244,109.583 639.577,108.75 639.5,107.5C 644.367,107.934 648.367,109.934 651.5,113.5C 651.833,114.5 652.5,115.167 653.5,115.5C 655.765,116.94 655.932,118.607 654,120.5C 650.414,122.709 646.914,125.043 643.5,127.5C 640.846,126.164 638.513,124.497 636.5,122.5C 638.048,122.179 638.715,121.179 638.5,119.5C 640.394,120.048 642.06,121.048 643.5,122.5C 651.412,119.207 651.412,116.041 643.5,113C 635.5,109.667 627.5,109.667 619.5,113C 616.308,115.028 613.641,117.528 611.5,120.5C 612.044,116.36 611.044,115.693 608.5,118.5C 611.594,111.763 616.927,108.096 624.5,107.5 Z"/></g>
<g><path style="opacity:0.306" fill="#f7edc0" d="M 242.5,107.5 C 242.217,108.289 241.717,108.956 241,109.5C 240.5,128.164 240.333,146.83 240.5,165.5C 239.338,146.671 239.171,127.671 240,108.5C 240.671,107.748 241.504,107.414 242.5,107.5 Z"/></g>
<g><path style="opacity:0.09" fill="#faefc9" d="M 340.5,108.5 C 342.213,109.635 342.88,111.302 342.5,113.5C 341.463,112.07 340.796,110.403 340.5,108.5 Z"/></g>
<g><path style="opacity:0.984" fill="#f1d77e" d="M 197.5,108.5 C 197.285,110.179 197.952,111.179 199.5,111.5C 199.405,113.786 198.738,115.786 197.5,117.5C 197.923,115.219 197.256,113.552 195.5,112.5C 195.66,110.847 196.326,109.514 197.5,108.5 Z"/></g>
<g><path style="opacity:0.538" fill="#f3e29b" d="M 430.5,110.5 C 430.5,110.833 430.5,111.167 430.5,111.5C 417.167,111.5 403.833,111.5 390.5,111.5C 390.181,128.91 390.515,146.244 391.5,163.5C 391.167,163.5 390.833,163.5 390.5,163.5C 389.503,146.008 389.17,128.341 389.5,110.5C 403.167,110.5 416.833,110.5 430.5,110.5 Z"/></g>
<g><path style="opacity:0.651" fill="#f5e3a0" d="M 438.5,108.5 C 438.18,127.909 438.513,147.243 439.5,166.5C 438.25,166.423 437.417,165.756 437,164.5C 436.333,146.5 436.333,128.5 437,110.5C 437.278,109.584 437.778,108.918 438.5,108.5 Z"/></g>
<g><path style="opacity:0.834" fill="#f3dc88" d="M 489.5,166.5 C 489.5,147.167 489.5,127.833 489.5,108.5C 484.5,108.5 479.5,108.5 474.5,108.5C 474.811,107.522 475.478,106.855 476.5,106.5C 480.365,107.806 484.198,107.806 488,106.5C 489.333,107.167 490.333,108.167 491,109.5C 491.667,127.833 491.667,146.167 491,164.5C 490.722,165.416 490.222,166.082 489.5,166.5 Z"/></g>
<g><path style="opacity:0.306" fill="#f8f0ca" d="M 493.5,109.5 C 493.231,113.931 493.564,118.265 494.5,122.5C 493.2,120.777 492.533,118.61 492.5,116C 492.504,113.639 492.837,111.473 493.5,109.5 Z"/></g>
<g><path style="opacity:0.28" fill="#f7eec3" d="M 243.5,111.5 C 243.5,111.167 243.5,110.833 243.5,110.5C 248.167,110.5 252.833,110.5 257.5,110.5C 257.5,124.833 257.5,139.167 257.5,153.5C 256.504,139.677 256.171,125.677 256.5,111.5C 252.167,111.5 247.833,111.5 243.5,111.5 Z"/></g>
<g><path style="opacity:0.173" fill="#faf3d6" d="M 305.5,111.5 C 301.167,111.5 296.833,111.5 292.5,111.5C 292.5,128.833 292.5,146.167 292.5,163.5C 291.503,146.008 291.17,128.341 291.5,110.5C 296.363,110.181 301.03,110.514 305.5,111.5 Z"/></g>
<g><path style="opacity:0.332" fill="#f6ebb9" d="M 357.5,111.5 C 357.5,111.167 357.5,110.833 357.5,110.5C 364.833,110.5 372.167,110.5 379.5,110.5C 379.5,128.167 379.5,145.833 379.5,163.5C 379.167,163.5 378.833,163.5 378.5,163.5C 378.5,146.167 378.5,128.833 378.5,111.5C 371.5,111.5 364.5,111.5 357.5,111.5 Z"/></g>
<g><path style="opacity:0.243" fill="#f8f0c8" d="M 454.5,111.5 C 450.167,111.5 445.833,111.5 441.5,111.5C 441.5,128.833 441.5,146.167 441.5,163.5C 440.503,146.008 440.17,128.341 440.5,110.5C 445.363,110.181 450.03,110.514 454.5,111.5 Z"/></g>
<g><path style="opacity:0.149" fill="#faf4da" d="M 486.5,163.5 C 486.5,146.167 486.5,128.833 486.5,111.5C 483.5,111.5 480.5,111.5 477.5,111.5C 477.826,120.349 477.493,129.016 476.5,137.5C 476.5,128.5 476.5,119.5 476.5,110.5C 480.167,110.5 483.833,110.5 487.5,110.5C 487.83,128.341 487.497,146.008 486.5,163.5 Z"/></g>
<g><path style="opacity:0.012" fill="#fbf1d0" d="M 651.5,113.5 C 652.833,113.5 653.5,114.167 653.5,115.5C 652.5,115.167 651.833,114.5 651.5,113.5 Z"/></g>
<g><path style="opacity:1" fill="#e6c235" d="M 221.5,116.5 C 221.511,118.547 221.844,120.547 222.5,122.5C 222.253,123.713 221.586,124.38 220.5,124.5C 219.596,123.791 219.263,122.791 219.5,121.5C 219.598,119.447 218.931,117.78 217.5,116.5C 217.5,116.167 217.5,115.833 217.5,115.5C 217.302,113.425 217.135,111.425 217,109.5C 218.781,111.724 220.281,114.058 221.5,116.5 Z"/></g>
<g><path style="opacity:0.993" fill="#f0d371" d="M 562.5,109.5 C 563.514,110.674 564.847,111.34 566.5,111.5C 558.244,115.419 552.911,121.752 550.5,130.5C 550.946,127.99 550.28,125.99 548.5,124.5C 550.68,117.111 555.347,112.111 562.5,109.5 Z"/></g>
<g><path style="opacity:0.012" fill="#faf2d2" d="M 356.5,114.5 C 356.277,118.162 355.277,121.495 353.5,124.5C 353.723,120.838 354.723,117.505 356.5,114.5 Z"/></g>
<g><path style="opacity:0.997" fill="#efd36f" d="M 586.5,108.5 C 593.833,111.167 598.833,116.167 601.5,123.5C 599.402,122.086 598.402,122.752 598.5,125.5C 594.915,117.58 588.915,112.58 580.5,110.5C 582.786,110.405 584.786,109.738 586.5,108.5 Z"/></g>
<g><path style="opacity:0.824" fill="#f4de92" d="M 195.5,112.5 C 195.655,115.716 194.655,118.383 192.5,120.5C 192.98,117.557 193.98,114.89 195.5,112.5 Z"/></g>
<g><path style="opacity:0.998" fill="#e6c236" d="M 195.5,112.5 C 197.256,113.552 197.923,115.219 197.5,117.5C 197.737,118.791 197.404,119.791 196.5,120.5C 195.13,122.25 194.13,124.25 193.5,126.5C 192.549,125.081 192.216,123.415 192.5,121.5C 192.5,121.167 192.5,120.833 192.5,120.5C 194.655,118.383 195.655,115.716 195.5,112.5 Z"/></g>
<g><path style="opacity:0.549" fill="#f6e7ae" d="M 638.5,119.5 C 634.5,119.5 630.5,119.5 626.5,119.5C 630.479,116.959 634.479,116.959 638.5,119.5 Z"/></g>
<g><path style="opacity:0.267" fill="#f9f1cd" d="M 217.5,116.5 C 218.931,117.78 219.598,119.447 219.5,121.5C 218.069,120.22 217.402,118.553 217.5,116.5 Z"/></g>
<g><path style="opacity:0.999" fill="#efd36f" d="M 460.5,114.5 C 464.546,119.214 468.212,124.214 471.5,129.5C 466.58,125.121 465.58,125.788 468.5,131.5C 464.479,126.804 460.812,121.804 457.5,116.5C 459.179,116.715 460.179,116.048 460.5,114.5 Z"/></g>
<g><path style="opacity:1" fill="#e8c644" d="M 494.5,108.5 C 510.837,108.333 527.17,108.5 543.5,109C 544.467,113.401 544.8,117.901 544.5,122.5C 539.695,123.487 534.695,123.821 529.5,123.5C 529.833,137.849 529.499,152.182 528.5,166.5C 522.552,167.624 516.552,167.79 510.5,167C 509.944,166.617 509.611,166.117 509.5,165.5C 509.5,151.167 509.5,136.833 509.5,122.5C 504.5,122.5 499.5,122.5 494.5,122.5C 493.564,118.265 493.231,113.931 493.5,109.5C 493.5,108.833 493.833,108.5 494.5,108.5 Z M 496.5,111.5 C 511.5,111.5 526.5,111.5 541.5,111.5C 541.5,114.167 541.5,116.833 541.5,119.5C 536.305,119.179 531.305,119.513 526.5,120.5C 525.504,134.657 525.171,148.99 525.5,163.5C 521.137,162.808 516.97,162.474 513,162.5C 512.831,148.327 512.331,134.327 511.5,120.5C 506.695,119.513 501.695,119.179 496.5,119.5C 496.5,116.833 496.5,114.167 496.5,111.5 Z"/></g>
<g><path style="opacity:0.303" fill="#f5e9b3" d="M 496.5,111.5 C 511.658,110.504 526.991,110.17 542.5,110.5C 542.5,113.833 542.5,117.167 542.5,120.5C 537.167,120.5 531.833,120.5 526.5,120.5C 531.305,119.513 536.305,119.179 541.5,119.5C 541.5,116.833 541.5,114.167 541.5,111.5C 526.5,111.5 511.5,111.5 496.5,111.5 Z"/></g>
<g><path style="opacity:1" fill="#efd26c" d="M 582.5,121.5 C 582.427,123.027 583.094,124.027 584.5,124.5C 585.234,125.708 585.567,127.041 585.5,128.5C 585.5,128.833 585.5,129.167 585.5,129.5C 583.147,123.855 582.147,124.189 582.5,130.5C 581.832,127.755 580.499,125.255 578.5,123C 574.334,121.666 571.334,122.833 569.5,126.5C 569.167,126.5 568.833,126.5 568.5,126.5C 568.217,125.711 567.717,125.044 567,124.5C 566.768,125.737 566.268,126.737 565.5,127.5C 565.232,125.901 565.566,124.568 566.5,123.5C 567.833,122.833 568.833,121.833 569.5,120.5C 574.118,116.398 578.451,116.731 582.5,121.5 Z"/></g>
<g><path style="opacity:0.694" fill="#eed672" d="M 511.5,120.5 C 512.331,134.327 512.831,148.327 513,162.5C 516.97,162.474 521.137,162.808 525.5,163.5C 521.1,164.823 516.6,164.823 512,163.5C 511.5,149.171 511.333,134.837 511.5,120.5 Z"/></g>
<g><path style="opacity:0.235" fill="#f9efc9" d="M 569.5,120.5 C 568.833,121.833 567.833,122.833 566.5,123.5C 566.5,121.5 567.5,120.5 569.5,120.5 Z"/></g>
<g><path style="opacity:0.396" fill="#f8ebbb" d="M 196.5,120.5 C 196.267,123.542 195.267,126.208 193.5,128.5C 193.5,127.833 193.5,127.167 193.5,126.5C 194.13,124.25 195.13,122.25 196.5,120.5 Z"/></g>
<g><path style="opacity:0.32" fill="#f6ebb9" d="M 494.5,122.5 C 499.5,122.5 504.5,122.5 509.5,122.5C 509.5,136.833 509.5,151.167 509.5,165.5C 508.504,151.677 508.171,137.677 508.5,123.5C 503.637,123.819 498.97,123.486 494.5,122.5 Z"/></g>
<g><path style="opacity:0.275" fill="#f9edc1" d="M 582.5,121.5 C 583.906,121.973 584.573,122.973 584.5,124.5C 583.094,124.027 582.427,123.027 582.5,121.5 Z"/></g>
<g><path style="opacity:1" fill="#f2d982" d="M 221.5,116.5 C 223.208,119.95 224.541,123.617 225.5,127.5C 224.542,127.047 223.708,126.381 223,125.5C 222.506,127.134 222.34,128.801 222.5,130.5C 221.542,128.698 220.875,126.698 220.5,124.5C 221.586,124.38 222.253,123.713 222.5,122.5C 221.844,120.547 221.511,118.547 221.5,116.5 Z"/></g>
<g><path style="opacity:1" fill="#eac94e" d="M 626.5,119.5 C 630.5,119.5 634.5,119.5 638.5,119.5C 638.715,121.179 638.048,122.179 636.5,122.5C 633.482,122.335 630.482,122.502 627.5,123C 626.402,123.77 626.402,124.603 627.5,125.5C 629.515,126.924 631.848,127.59 634.5,127.5C 636.292,127.366 637.958,127.699 639.5,128.5C 639.577,129.75 640.244,130.583 641.5,131C 639.866,131.494 638.199,131.66 636.5,131.5C 634.708,131.634 633.042,131.301 631.5,130.5C 628.965,128.983 626.298,127.65 623.5,126.5C 621.67,123.022 622.67,120.689 626.5,119.5 Z"/></g>
<g><path style="opacity:0.102" fill="#faf3d5" d="M 627.5,125.5 C 630.152,125.41 632.485,126.076 634.5,127.5C 631.848,127.59 629.515,126.924 627.5,125.5 Z"/></g>
<g><path style="opacity:0.102" fill="#faefc9" d="M 207.5,125.5 C 209.104,126.287 209.771,127.62 209.5,129.5C 208.326,128.486 207.66,127.153 207.5,125.5 Z"/></g>
<g><path style="opacity:0.999" fill="#efd068" d="M 601.5,123.5 C 601.41,126.152 602.076,128.485 603.5,130.5C 604.833,135.167 604.833,139.833 603.5,144.5C 602.076,146.515 601.41,148.848 601.5,151.5C 601.672,152.492 601.338,153.158 600.5,153.5C 600.423,152.25 599.756,151.417 598.5,151C 599.38,149.644 599.714,148.144 599.5,146.5C 599.72,139.457 599.386,132.457 598.5,125.5C 598.402,122.752 599.402,122.086 601.5,123.5 Z"/></g>
<g><path style="opacity:0.31" fill="#f5e7af" d="M 611.5,120.5 C 610.701,123.43 610.368,126.43 610.5,129.5C 609.366,127.034 609.199,124.367 610,121.5C 610.383,120.944 610.883,120.611 611.5,120.5 Z"/></g>
<g><path style="opacity:0.71" fill="#f4e097" d="M 623.5,126.5 C 626.298,127.65 628.965,128.983 631.5,130.5C 628.079,130.482 625.412,129.149 623.5,126.5 Z"/></g>
<g><path style="opacity:1" fill="#ebca51" d="M 225.5,127.5 C 226.735,130.33 227.735,133.33 228.5,136.5C 228.402,138.553 229.069,140.22 230.5,141.5C 231.363,143.421 232.029,145.421 232.5,147.5C 232.511,149.547 232.844,151.547 233.5,153.5C 233.253,154.713 232.586,155.38 231.5,155.5C 231.598,153.447 230.931,151.78 229.5,150.5C 227.238,145.715 225.572,140.715 224.5,135.5C 224.598,133.447 223.931,131.78 222.5,130.5C 222.34,128.801 222.506,127.134 223,125.5C 223.708,126.381 224.542,127.047 225.5,127.5 Z"/></g>
<g><path style="opacity:0.137" fill="#faf3d6" d="M 364.5,127.5 C 362.57,127.771 361.236,128.771 360.5,130.5C 360.337,126.965 361.67,125.965 364.5,127.5 Z"/></g>
<g><path style="opacity:1" fill="#e7c43b" d="M 381.5,108.5 C 382.662,127.329 382.829,146.329 382,165.5C 381.5,166 381,166.5 380.5,167C 374.833,167.667 369.167,167.667 363.5,167C 362.944,166.617 362.611,166.117 362.5,165.5C 362.666,156.161 362.5,146.827 362,137.5C 361.209,138.745 360.709,140.078 360.5,141.5C 360.5,141.833 360.5,142.167 360.5,142.5C 359.262,144.214 358.595,146.214 358.5,148.5C 357.612,153.072 356.279,157.405 354.5,161.5C 352.787,160.365 352.12,158.698 352.5,156.5C 352.5,156.167 352.5,155.833 352.5,155.5C 354.074,153.898 354.741,151.898 354.5,149.5C 355.015,147.106 355.681,144.772 356.5,142.5C 358.655,140.383 359.655,137.716 359.5,134.5C 359.232,132.901 359.566,131.568 360.5,130.5C 361.236,128.771 362.57,127.771 364.5,127.5C 364.333,139.505 364.5,151.505 365,163.5C 369.933,164.824 374.766,164.824 379.5,163.5C 379.5,145.833 379.5,128.167 379.5,110.5C 372.167,110.5 364.833,110.5 357.5,110.5C 365.097,108.533 373.097,107.866 381.5,108.5 Z"/></g>
<g><path style="opacity:0.494" fill="#f5e5a7" d="M 601.5,123.5 C 602.924,125.515 603.59,127.848 603.5,130.5C 602.076,128.485 601.41,126.152 601.5,123.5 Z"/></g>
<g><path style="opacity:1" fill="#eccc58" d="M 192.5,121.5 C 192.216,123.415 192.549,125.081 193.5,126.5C 193.5,127.167 193.5,127.833 193.5,128.5C 193.072,131.785 192.072,134.785 190.5,137.5C 188.692,136.082 188.025,134.082 188.5,131.5C 189.321,127.873 190.654,124.54 192.5,121.5 Z"/></g>
<g><path style="opacity:0.863" fill="#f3dc89" d="M 204.5,125.5 C 204.655,128.716 203.655,131.383 201.5,133.5C 201.98,130.557 202.98,127.89 204.5,125.5 Z"/></g>
<g><path style="opacity:0.353" fill="#f9eec5" d="M 352.5,128.5 C 352.405,130.786 351.738,132.786 350.5,134.5C 350.259,132.102 350.926,130.102 352.5,128.5 Z"/></g>
<g><path style="opacity:0.714" fill="#efd672" d="M 364.5,127.5 C 365.205,130.228 365.872,133.061 366.5,136C 365.35,144.755 365.184,153.588 366,162.5C 370.166,163.067 374.333,163.401 378.5,163.5C 378.833,163.5 379.167,163.5 379.5,163.5C 374.766,164.824 369.933,164.824 365,163.5C 364.5,151.505 364.333,139.505 364.5,127.5 Z"/></g>
<g><path style="opacity:0.986" fill="#edcf61" d="M 432.5,109.5 C 433.483,113.298 433.817,117.298 433.5,121.5C 433.389,122.117 433.056,122.617 432.5,123C 424.173,123.5 415.84,123.666 407.5,123.5C 407.261,125.467 407.594,127.301 408.5,129C 413.129,128.924 417.795,128.924 422.5,129C 423,129.5 423.5,130 424,130.5C 424.667,134.833 424.667,139.167 424,143.5C 423.5,144 423,144.5 422.5,145C 417.511,145.499 412.511,145.666 407.5,145.5C 407.5,147.167 407.5,148.833 407.5,150.5C 416.173,150.334 424.84,150.5 433.5,151C 434.998,153.417 435.665,156.083 435.5,159C 435.695,161.793 435.029,164.293 433.5,166.5C 418.545,167.65 403.545,167.817 388.5,167C 387.944,166.617 387.611,166.117 387.5,165.5C 402.833,165.5 418.167,165.5 433.5,165.5C 433.666,161.486 433.499,157.486 433,153.5C 432.501,157.152 432.335,160.818 432.5,164.5C 418.323,164.829 404.323,164.496 390.5,163.5C 390.833,163.5 391.167,163.5 391.5,163.5C 404.5,163.5 417.5,163.5 430.5,163.5C 431.477,160.713 431.81,157.713 431.5,154.5C 422.833,154.5 414.167,154.5 405.5,154.5C 404.883,154.389 404.383,154.056 404,153.5C 403.207,149.577 403.374,145.744 404.5,142C 405.5,141.5 406.5,141 407.5,140.5C 411.765,141.439 416.098,141.772 420.5,141.5C 421.477,138.713 421.81,135.713 421.5,132.5C 416.167,132.5 410.833,132.5 405.5,132.5C 404.883,132.389 404.383,132.056 404,131.5C 403.333,128.167 403.333,124.833 404,121.5C 404.383,120.944 404.883,120.611 405.5,120.5C 413.833,120.5 422.167,120.5 430.5,120.5C 430.5,119.5 430.5,118.5 430.5,117.5C 430.5,115.5 430.5,113.5 430.5,111.5C 430.5,111.167 430.5,110.833 430.5,110.5C 431.323,113.977 431.823,117.644 432,121.5C 432.499,117.514 432.666,113.514 432.5,109.5 Z"/></g>
<g><path style="opacity:1" fill="#e8c745" d="M 611.5,120.5 C 610.883,120.611 610.383,120.944 610,121.5C 609.199,124.367 609.366,127.034 610.5,129.5C 610.5,129.833 610.5,130.167 610.5,130.5C 610.34,132.153 609.674,133.486 608.5,134.5C 606.953,132.193 606.287,129.527 606.5,126.5C 606.287,123.473 606.953,120.807 608.5,118.5C 611.044,115.693 612.044,116.36 611.5,120.5 Z"/></g>
<g><path style="opacity:0.992" fill="#e8c745" d="M 548.5,124.5 C 550.28,125.99 550.946,127.99 550.5,130.5C 550.5,135.167 550.5,139.833 550.5,144.5C 550.946,147.01 550.28,149.01 548.5,150.5C 547.766,149.292 547.433,147.959 547.5,146.5C 547.326,139.465 547.659,132.465 548.5,125.5C 548.5,125.167 548.5,124.833 548.5,124.5 Z"/></g>
<g><path style="opacity:1" fill="#f1d77b" d="M 209.5,130.5 C 211.267,132.792 212.267,135.458 212.5,138.5C 209.929,134.482 208.929,135.149 209.5,140.5C 207.076,140.808 204.743,140.474 202.5,139.5C 202.624,138.893 202.957,138.56 203.5,138.5C 205.035,139.788 206.701,139.788 208.5,138.5C 207.754,137.264 207.421,135.93 207.5,134.5C 208.674,133.486 209.34,132.153 209.5,130.5 Z"/></g>
<g><path style="opacity:0.345" fill="#f8ecc0" d="M 222.5,130.5 C 223.931,131.78 224.598,133.447 224.5,135.5C 223.069,134.22 222.402,132.553 222.5,130.5 Z"/></g>
<g><path style="opacity:0.235" fill="#f9f0cf" d="M 452.5,134.5 C 454.709,133.024 456.042,133.691 456.5,136.5C 455.395,135.4 454.062,134.733 452.5,134.5 Z"/></g>
<g><path style="opacity:0.361" fill="#f8edc2" d="M 343.5,128.5 C 344.935,130.598 346.102,132.931 347,135.5C 347.671,136.252 348.504,136.586 349.5,136.5C 348.458,137.791 347.292,137.791 346,136.5C 344.659,133.978 343.826,131.311 343.5,128.5 Z"/></g>
<g><path style="opacity:0.602" fill="#f6e7ac" d="M 405.5,132.5 C 410.833,132.5 416.167,132.5 421.5,132.5C 421.81,135.713 421.477,138.713 420.5,141.5C 419.221,138.998 419.221,136.498 420.5,134C 415.316,133.826 410.316,133.326 405.5,132.5 Z"/></g>
<g><path style="opacity:0.641" fill="#f6e6aa" d="M 548.5,125.5 C 547.659,132.465 547.326,139.465 547.5,146.5C 544.763,139.382 545.096,132.382 548.5,125.5 Z"/></g>
<g><path style="opacity:0.999" fill="#f0d474" d="M 639.5,128.5 C 644.367,128.934 648.367,130.934 651.5,134.5C 651.833,135.5 652.5,136.167 653.5,136.5C 657.38,141.305 658.38,146.638 656.5,152.5C 656.922,148.278 656.255,144.278 654.5,140.5C 653.571,141.689 653.238,143.022 653.5,144.5C 650.288,137.05 644.621,132.717 636.5,131.5C 638.199,131.66 639.866,131.494 641.5,131C 640.244,130.583 639.577,129.75 639.5,128.5 Z"/></g>
<g><path style="opacity:0.012" fill="#fbf2d2" d="M 651.5,134.5 C 652.833,134.5 653.5,135.167 653.5,136.5C 652.5,136.167 651.833,135.5 651.5,134.5 Z"/></g>
<g><path style="opacity:1" fill="#e6c335" d="M 438.5,108.5 C 444.176,108.334 449.843,108.501 455.5,109C 456.373,110.045 457.373,110.878 458.5,111.5C 459.906,111.973 460.573,112.973 460.5,114.5C 460.179,116.048 459.179,116.715 457.5,116.5C 456.075,115.078 455.075,113.411 454.5,111.5C 450.03,110.514 445.363,110.181 440.5,110.5C 440.17,128.341 440.503,146.008 441.5,163.5C 444.833,163.5 448.167,163.5 451.5,163.5C 451.173,153.652 451.506,143.986 452.5,134.5C 454.062,134.733 455.395,135.4 456.5,136.5C 456.738,138.404 457.738,139.738 459.5,140.5C 459.427,142.027 460.094,143.027 461.5,143.5C 463.354,146.837 462.687,147.837 459.5,146.5C 459.446,144.368 458.446,143.035 456.5,142.5C 456.631,141.624 456.298,140.957 455.5,140.5C 454.502,148.807 454.169,157.14 454.5,165.5C 454.389,166.117 454.056,166.617 453.5,167C 448.648,167.815 443.981,167.648 439.5,166.5C 438.513,147.243 438.18,127.909 438.5,108.5 Z"/></g>
<g><path style="opacity:0.29" fill="#f9efc8" d="M 205.5,133.5 C 205.598,135.553 204.931,137.22 203.5,138.5C 203.402,136.447 204.069,134.78 205.5,133.5 Z"/></g>
<g><path style="opacity:1" fill="#f3db89" d="M 188.5,131.5 C 188.025,134.082 188.692,136.082 190.5,137.5C 190.204,139.403 189.537,141.07 188.5,142.5C 188.657,141.127 188.49,139.793 188,138.5C 186.811,140.233 185.644,141.9 184.5,143.5C 185.319,139.225 186.653,135.225 188.5,131.5 Z"/></g>
<g><path style="opacity:1" fill="#e9c746" d="M 340.5,108.5 C 340.796,110.403 341.463,112.07 342.5,113.5C 342.402,115.553 343.069,117.22 344.5,118.5C 344.5,118.833 344.5,119.167 344.5,119.5C 344.528,122.916 345.528,125.916 347.5,128.5C 347.833,128.5 348.167,128.5 348.5,128.5C 350.472,125.916 351.472,122.916 351.5,119.5C 352.888,116.192 354.388,112.859 356,109.5C 356.49,110.793 356.657,112.127 356.5,113.5C 356.5,113.833 356.5,114.167 356.5,114.5C 354.723,117.505 353.723,120.838 353.5,124.5C 353.167,125.833 352.833,127.167 352.5,128.5C 350.926,130.102 350.259,132.102 350.5,134.5C 350.672,135.492 350.338,136.158 349.5,136.5C 348.504,136.586 347.671,136.252 347,135.5C 346.102,132.931 344.935,130.598 343.5,128.5C 341.433,123.299 339.766,117.965 338.5,112.5C 331.576,110.537 324.243,109.87 316.5,110.5C 316.17,128.341 316.503,146.008 317.5,163.5C 320.5,163.5 323.5,163.5 326.5,163.5C 327.495,152.012 327.828,140.345 327.5,128.5C 328.5,128.5 329.5,128.5 330.5,128.5C 332.977,133.146 334.644,138.146 335.5,143.5C 335.861,147.915 337.194,151.915 339.5,155.5C 339.511,157.547 339.844,159.547 340.5,161.5C 340.253,162.713 339.586,163.38 338.5,163.5C 337.596,162.791 337.263,161.791 337.5,160.5C 337.405,158.214 336.738,156.214 335.5,154.5C 334.262,152.786 333.595,150.786 333.5,148.5C 333.741,146.102 333.074,144.102 331.5,142.5C 331.769,140.571 331.269,138.905 330,137.5C 329.5,146.494 329.334,155.494 329.5,164.5C 329.389,165.117 329.056,165.617 328.5,166C 324.179,166.499 319.846,166.666 315.5,166.5C 314.25,166.423 313.417,165.756 313,164.5C 312.333,146.5 312.333,128.5 313,110.5C 313.615,108.884 314.615,107.551 316,106.5C 322.443,107.736 328.943,107.736 335.5,106.5C 337.557,106.436 339.223,107.102 340.5,108.5 Z"/></g>
<g><path style="opacity:0.352" fill="#f6eab5" d="M 330.5,128.5 C 329.5,128.5 328.5,128.5 327.5,128.5C 327.828,140.345 327.495,152.012 326.5,163.5C 326.5,151.5 326.5,139.5 326.5,127.5C 328.099,127.232 329.432,127.566 330.5,128.5 Z"/></g>
<g><path style="opacity:0.812" fill="#f3df94" d="M 351.5,119.5 C 351.472,122.916 350.472,125.916 348.5,128.5C 348.928,125.215 349.928,122.215 351.5,119.5 Z"/></g>
<g><path style="opacity:0.753" fill="#f5e4a4" d="M 344.5,119.5 C 346.072,122.215 347.072,125.215 347.5,128.5C 345.528,125.916 344.528,122.916 344.5,119.5 Z"/></g>
<g><path style="opacity:0.031" fill="#fcf6e2" d="M 342.5,113.5 C 343.931,114.78 344.598,116.447 344.5,118.5C 343.069,117.22 342.402,115.553 342.5,113.5 Z"/></g>
<g><path style="opacity:0.301" fill="#faf2d4" d="M 338.5,112.5 C 331.588,111.538 324.588,111.205 317.5,111.5C 317.5,128.833 317.5,146.167 317.5,163.5C 316.503,146.008 316.17,128.341 316.5,110.5C 324.243,109.87 331.576,110.537 338.5,112.5 Z"/></g>
<g><path style="opacity:0.576" fill="#f6e5a6" d="M 456.5,136.5 C 458.262,137.262 459.262,138.596 459.5,140.5C 457.738,139.738 456.738,138.404 456.5,136.5 Z"/></g>
<g><path style="opacity:0.711" fill="#f1dc85" d="M 565.5,127.5 C 565.5,134.167 565.5,140.833 565.5,147.5C 564.764,144.305 564.097,140.971 563.5,137.5C 564.097,134.029 564.764,130.695 565.5,127.5 Z"/></g>
<g><path style="opacity:0.235" fill="#f9f0cc" d="M 585.5,128.5 C 586.165,131.314 586.498,134.314 586.5,137.5C 586.722,141.797 586.055,145.797 584.5,149.5C 585.331,142.869 585.664,136.202 585.5,129.5C 585.5,129.167 585.5,128.833 585.5,128.5 Z"/></g>
<g><path style="opacity:0.978" fill="#efd26e" d="M 610.5,130.5 C 613.315,135.983 617.648,139.649 623.5,141.5C 622.022,141.238 620.689,141.571 619.5,142.5C 621.594,143.518 623.594,144.518 625.5,145.5C 617.634,145.076 611.967,141.409 608.5,134.5C 609.674,133.486 610.34,132.153 610.5,130.5 Z"/></g>
<g><path style="opacity:0.082" fill="#fbf5dc" d="M 228.5,136.5 C 229.931,137.78 230.598,139.447 230.5,141.5C 229.069,140.22 228.402,138.553 228.5,136.5 Z"/></g>
<g><path style="opacity:0.769" fill="#f4de90" d="M 359.5,134.5 C 359.655,137.716 358.655,140.383 356.5,142.5C 356.98,139.557 357.98,136.89 359.5,134.5 Z"/></g>
<g><path style="opacity:0.307" fill="#f7edc1" d="M 362.5,165.5 C 361.833,157.5 361.167,149.5 360.5,141.5C 360.709,140.078 361.209,138.745 362,137.5C 362.5,146.827 362.666,156.161 362.5,165.5 Z"/></g>
<g><path style="opacity:0.4" fill="#f5e9af" d="M 456.5,142.5 C 455.833,150.167 455.167,157.833 454.5,165.5C 454.169,157.14 454.502,148.807 455.5,140.5C 456.298,140.957 456.631,141.624 456.5,142.5 Z"/></g>
<g><path style="opacity:0.999" fill="#e4c029" d="M 188.5,142.5 C 188.5,142.833 188.5,143.167 188.5,143.5C 187.069,144.78 186.402,146.447 186.5,148.5C 184.744,147.448 184.077,145.781 184.5,143.5C 185.644,141.9 186.811,140.233 188,138.5C 188.49,139.793 188.657,141.127 188.5,142.5 Z"/></g>
<g><path style="opacity:0.999" fill="#e6c235" d="M 207.5,125.5 C 207.66,127.153 208.326,128.486 209.5,129.5C 209.5,129.833 209.5,130.167 209.5,130.5C 209.34,132.153 208.674,133.486 207.5,134.5C 207.719,133.325 207.386,132.325 206.5,131.5C 205.893,131.624 205.56,131.957 205.5,132.5C 205.5,132.833 205.5,133.167 205.5,133.5C 204.069,134.78 203.402,136.447 203.5,138.5C 202.957,138.56 202.624,138.893 202.5,139.5C 204.743,140.474 207.076,140.808 209.5,140.5C 208.929,135.149 209.929,134.482 212.5,138.5C 213.833,139.833 213.833,141.167 212.5,142.5C 208.5,142.5 204.5,142.5 200.5,142.5C 200.5,140.833 200.5,139.167 200.5,137.5C 200.232,135.901 200.566,134.568 201.5,133.5C 203.655,131.383 204.655,128.716 204.5,125.5C 205.5,124.167 206.5,124.167 207.5,125.5 Z"/></g>
<g><path style="opacity:0.6" fill="#f6e7ae" d="M 205.5,132.5 C 205.56,131.957 205.893,131.624 206.5,131.5C 207.386,132.325 207.719,133.325 207.5,134.5C 206.833,133.833 206.167,133.167 205.5,132.5 Z"/></g>
<g><path style="opacity:0.524" fill="#f1e092" d="M 331.5,142.5 C 330.508,149.648 330.175,156.981 330.5,164.5C 330.167,164.5 329.833,164.5 329.5,164.5C 329.334,155.494 329.5,146.494 330,137.5C 331.269,138.905 331.769,140.571 331.5,142.5 Z"/></g>
<g><path style="opacity:0.549" fill="#f3e198" d="M 200.5,137.5 C 200.5,139.167 200.5,140.833 200.5,142.5C 204.5,142.5 208.5,142.5 212.5,142.5C 208.317,143.811 203.984,143.811 199.5,142.5C 198.316,140.533 198.649,138.866 200.5,137.5 Z"/></g>
<g><path style="opacity:0.89" fill="#f6e2a0" d="M 456.5,142.5 C 458.446,143.035 459.446,144.368 459.5,146.5C 458.026,145.564 457.026,144.23 456.5,142.5 Z"/></g>
<g><path style="opacity:0.502" fill="#f5e4a4" d="M 459.5,140.5 C 460.906,140.973 461.573,141.973 461.5,143.5C 460.094,143.027 459.427,142.027 459.5,140.5 Z"/></g>
<g><path style="opacity:0.97" fill="#e9c749" d="M 623.5,141.5 C 625.216,141.629 626.883,141.962 628.5,142.5C 630.515,143.924 632.848,144.59 635.5,144.5C 637.129,146.196 636.796,147.196 634.5,147.5C 631.171,147.785 628.171,147.118 625.5,145.5C 623.594,144.518 621.594,143.518 619.5,142.5C 620.689,141.571 622.022,141.238 623.5,141.5 Z"/></g>
<g><path style="opacity:0.122" fill="#faf2d2" d="M 628.5,142.5 C 631.152,142.41 633.485,143.076 635.5,144.5C 632.848,144.59 630.515,143.924 628.5,142.5 Z"/></g>
<g><path style="opacity:1" fill="#e6c336" d="M 656.5,152.5 C 656.737,153.791 656.404,154.791 655.5,155.5C 653.787,154.365 653.12,152.698 653.5,150.5C 653.5,148.5 653.5,146.5 653.5,144.5C 653.238,143.022 653.571,141.689 654.5,140.5C 656.255,144.278 656.922,148.278 656.5,152.5 Z"/></g>
<g><path style="opacity:0.427" fill="#f8eab8" d="M 331.5,142.5 C 333.074,144.102 333.741,146.102 333.5,148.5C 332.262,146.786 331.595,144.786 331.5,142.5 Z"/></g>
<g><path style="opacity:0.012" fill="#fbf3d9" d="M 360.5,142.5 C 360.741,144.898 360.074,146.898 358.5,148.5C 358.595,146.214 359.262,144.214 360.5,142.5 Z"/></g>
<g><path style="opacity:0.247" fill="#faf1d0" d="M 188.5,143.5 C 188.598,145.553 187.931,147.22 186.5,148.5C 186.402,146.447 187.069,144.78 188.5,143.5 Z"/></g>
<g><path style="opacity:0.839" fill="#f4e095" d="M 335.5,143.5 C 337.405,147.216 338.739,151.216 339.5,155.5C 337.194,151.915 335.861,147.915 335.5,143.5 Z"/></g>
<g><path style="opacity:1" fill="#f4dc8d" d="M 635.5,144.5 C 641.214,145.383 642.714,148.383 640,153.5C 638.89,155.037 637.39,155.703 635.5,155.5C 636.806,154.533 637.473,153.199 637.5,151.5C 636.833,151.5 636.167,151.5 635.5,151.5C 636.826,149.805 636.493,148.472 634.5,147.5C 636.796,147.196 637.129,146.196 635.5,144.5 Z"/></g>
<g><path style="opacity:0.047" fill="#faf0cb" d="M 603.5,144.5 C 603.59,147.152 602.924,149.485 601.5,151.5C 601.41,148.848 602.076,146.515 603.5,144.5 Z"/></g>
<g><path style="opacity:0.996" fill="#f2d981" d="M 184.5,143.5 C 184.077,145.781 184.744,147.448 186.5,148.5C 186.598,150.553 185.931,152.22 184.5,153.5C 184.657,152.127 184.49,150.793 184,149.5C 183.098,151.431 181.931,153.097 180.5,154.5C 181.459,150.617 182.792,146.95 184.5,143.5 Z"/></g>
<g><path style="opacity:1" fill="#e2bd18" d="M 637.5,151.5 C 637.34,149.801 637.506,148.134 638,146.5C 640.139,148.585 639.972,150.251 637.5,151.5 Z"/></g>
<g><path style="opacity:0.994" fill="#eac94f" d="M 568.5,126.5 C 567.407,133.45 567.24,140.45 568,147.5C 568.383,148.056 568.883,148.389 569.5,148.5C 570.267,149.172 570.934,150.005 571.5,151C 573.81,151.497 576.143,151.663 578.5,151.5C 579.833,151.5 580.5,150.833 580.5,149.5C 582.183,143.301 582.849,136.968 582.5,130.5C 582.147,124.189 583.147,123.855 585.5,129.5C 585.664,136.202 585.331,142.869 584.5,149.5C 584.089,153.079 582.089,155.246 578.5,156C 575.961,156.796 573.628,156.629 571.5,155.5C 571.027,154.094 570.027,153.427 568.5,153.5C 566.025,152.313 565.025,150.313 565.5,147.5C 565.5,140.833 565.5,134.167 565.5,127.5C 566.268,126.737 566.768,125.737 567,124.5C 567.717,125.044 568.217,125.711 568.5,126.5 Z"/></g>
<g><path style="opacity:0.305" fill="#f5e7ad" d="M 568.5,126.5 C 568.833,126.5 569.167,126.5 569.5,126.5C 568.167,133.833 568.167,141.167 569.5,148.5C 568.883,148.389 568.383,148.056 568,147.5C 567.24,140.45 567.407,133.45 568.5,126.5 Z"/></g>
<g><path style="opacity:0.451" fill="#faefc9" d="M 580.5,149.5 C 580.5,150.833 579.833,151.5 578.5,151.5C 578.833,150.5 579.5,149.833 580.5,149.5 Z"/></g>
<g><path style="opacity:0.997" fill="#f1d576" d="M 624.5,151.5 C 623.127,151.343 621.793,151.51 620.5,152C 621.056,152.383 621.389,152.883 621.5,153.5C 621.167,153.5 620.833,153.5 620.5,153.5C 619.143,152.315 617.643,151.315 616,150.5C 613.433,151.868 610.933,153.368 608.5,155C 611.574,158.524 615.241,161.024 619.5,162.5C 618.022,162.238 616.689,162.571 615.5,163.5C 622.207,166.137 629.207,167.471 636.5,167.5C 624.352,169.73 613.852,166.397 605,157.5C 604.333,155.833 604.333,154.167 605,152.5C 608.91,148.793 613.41,146.626 618.5,146C 620.396,148.068 622.396,149.901 624.5,151.5 Z"/></g>
<g><path style="opacity:0.992" fill="#e6c337" d="M 184.5,153.5 C 184.5,153.833 184.5,154.167 184.5,154.5C 183.069,155.78 182.402,157.447 182.5,159.5C 180.804,161.129 179.804,160.796 179.5,158.5C 179.232,156.901 179.566,155.568 180.5,154.5C 181.931,153.097 183.098,151.431 184,149.5C 184.49,150.793 184.657,152.127 184.5,153.5 Z"/></g>
<g><path style="opacity:0.595" fill="#f6e6aa" d="M 217.5,155.5 C 216.711,155.217 216.044,154.717 215.5,154C 209.175,153.5 202.842,153.334 196.5,153.5C 196.918,152.778 197.584,152.278 198.5,152C 203.833,151.333 209.167,151.333 214.5,152C 216.426,152.422 217.426,153.589 217.5,155.5 Z"/></g>
<g><path style="opacity:0.635" fill="#f7e8b1" d="M 354.5,149.5 C 354.741,151.898 354.074,153.898 352.5,155.5C 352.595,153.214 353.262,151.214 354.5,149.5 Z"/></g>
<g><path style="opacity:0.999" fill="#efd169" d="M 599.5,146.5 C 599.714,148.144 599.38,149.644 598.5,151C 599.756,151.417 600.423,152.25 600.5,153.5C 598.5,158.833 594.833,162.5 589.5,164.5C 590.674,162.632 590.007,161.632 587.5,161.5C 588.899,160.11 590.566,159.11 592.5,158.5C 594.587,157.415 595.92,155.749 596.5,153.5C 597.264,150.982 598.264,148.649 599.5,146.5 Z"/></g>
<g><path style="opacity:0.982" fill="#efd16c" d="M 624.5,151.5 C 628.167,151.5 631.833,151.5 635.5,151.5C 636.167,151.5 636.833,151.5 637.5,151.5C 637.473,153.199 636.806,154.533 635.5,155.5C 631.833,156.833 628.167,156.833 624.5,155.5C 623.71,154.599 622.71,153.932 621.5,153.5C 621.389,152.883 621.056,152.383 620.5,152C 621.793,151.51 623.127,151.343 624.5,151.5 Z"/></g>
<g><path style="opacity:0.243" fill="#faf0cd" d="M 229.5,150.5 C 230.931,151.78 231.598,153.447 231.5,155.5C 230.069,154.22 229.402,152.553 229.5,150.5 Z"/></g>
<g><path style="opacity:1" fill="#edce60" d="M 461.5,143.5 C 465.548,147.254 468.882,151.587 471.5,156.5C 471.427,158.027 472.094,159.027 473.5,159.5C 474.906,159.973 475.573,160.973 475.5,162.5C 472.685,161.668 472.018,162.668 473.5,165.5C 468.601,159.383 463.934,153.049 459.5,146.5C 462.687,147.837 463.354,146.837 461.5,143.5 Z"/></g>
<g><path style="opacity:0.081" fill="#fcf9ec" d="M 258.5,154.5 C 266.5,154.5 274.5,154.5 282.5,154.5C 282.5,157.5 282.5,160.5 282.5,163.5C 282.167,163.5 281.833,163.5 281.5,163.5C 281.5,160.833 281.5,158.167 281.5,155.5C 273.648,155.825 265.982,155.492 258.5,154.5 Z"/></g>
<g><path style="opacity:0.298" fill="#f8ebbb" d="M 568.5,153.5 C 570.027,153.427 571.027,154.094 571.5,155.5C 569.973,155.573 568.973,154.906 568.5,153.5 Z"/></g>
<g><path style="opacity:0.133" fill="#faf1cf" d="M 620.5,153.5 C 620.833,153.5 621.167,153.5 621.5,153.5C 622.71,153.932 623.71,154.599 624.5,155.5C 622.62,155.771 621.287,155.104 620.5,153.5 Z"/></g>
<g><path style="opacity:0.267" fill="#f8edc1" d="M 198.5,156.5 C 203.68,155.185 209.014,155.185 214.5,156.5C 215.577,158.729 216.244,161.063 216.5,163.5C 215.136,161.78 214.136,159.78 213.5,157.5C 208.544,156.506 203.544,156.173 198.5,156.5 Z"/></g>
<g><path style="opacity:1" fill="#eed167" d="M 196.5,153.5 C 196.427,155.027 197.094,156.027 198.5,156.5C 198.118,160.332 196.785,163.665 194.5,166.5C 189.715,165.08 184.715,163.747 179.5,162.5C 178.614,163.325 178.281,164.325 178.5,165.5C 177.133,162.988 177.466,160.655 179.5,158.5C 179.804,160.796 180.804,161.129 182.5,159.5C 182.67,160.822 182.337,161.989 181.5,163C 185.152,163.499 188.818,163.665 192.5,163.5C 192.872,159.703 194.206,156.37 196.5,153.5 Z"/></g>
<g><path style="opacity:0.447" fill="#f8e9b3" d="M 596.5,153.5 C 595.92,155.749 594.587,157.415 592.5,158.5C 593.08,156.251 594.413,154.585 596.5,153.5 Z"/></g>
<g><path style="opacity:0.31" fill="#f8eec4" d="M 184.5,154.5 C 184.598,156.553 183.931,158.22 182.5,159.5C 182.402,157.447 183.069,155.78 184.5,154.5 Z"/></g>
<g><path style="opacity:0.008" fill="#fbf3d6" d="M 335.5,154.5 C 336.738,156.214 337.405,158.214 337.5,160.5C 335.926,158.898 335.259,156.898 335.5,154.5 Z"/></g>
<g><path style="opacity:1" fill="#eed169" d="M 550.5,144.5 C 553.005,153.671 558.672,160.005 567.5,163.5C 565.856,163.714 564.356,163.38 563,162.5C 562.53,163.577 562.697,164.577 563.5,165.5C 556.167,162.833 551.167,157.833 548.5,150.5C 550.28,149.01 550.946,147.01 550.5,144.5 Z"/></g>
<g><path style="opacity:0.992" fill="#f2d87f" d="M 653.5,150.5 C 653.12,152.698 653.787,154.365 655.5,155.5C 653.744,160.887 650.077,164.22 644.5,165.5C 645.562,164.425 645.562,163.425 644.5,162.5C 638.136,164.659 631.803,164.993 625.5,163.5C 634.464,164.97 642.464,162.97 649.5,157.5C 651.127,155.235 652.461,152.901 653.5,150.5 Z"/></g>
<g><path style="opacity:0.345" fill="#f8ecbf" d="M 471.5,156.5 C 472.906,156.973 473.573,157.973 473.5,159.5C 472.094,159.027 471.427,158.027 471.5,156.5 Z"/></g>
<g><path style="opacity:0.762" fill="#f0d674" d="M 232.5,147.5 C 234.669,152.663 236.669,157.996 238.5,163.5C 238.547,165.038 237.88,166.038 236.5,166.5C 236.852,163.927 236.352,161.594 235,159.5C 234.506,161.134 234.34,162.801 234.5,164.5C 229.489,164.666 224.489,164.499 219.5,164C 218.62,162.644 218.286,161.144 218.5,159.5C 219.391,160.261 220.058,161.261 220.5,162.5C 224.783,163.492 229.116,163.826 233.5,163.5C 232.833,160.833 232.167,158.167 231.5,155.5C 232.586,155.38 233.253,154.713 233.5,153.5C 232.844,151.547 232.511,149.547 232.5,147.5 Z"/></g>
<g><path style="opacity:0.759" fill="#ecd364" d="M 243.5,110.5 C 243.5,110.833 243.5,111.167 243.5,111.5C 243.333,128.503 243.5,145.503 244,162.5C 256.42,163.489 268.92,163.822 281.5,163.5C 281.833,163.5 282.167,163.5 282.5,163.5C 269.431,164.83 256.265,164.83 243,163.5C 242.171,145.662 242.338,127.995 243.5,110.5 Z"/></g>
<g><path style="opacity:0.994" fill="#f0d676" d="M 339.5,155.5 C 340.67,157.65 341.67,159.984 342.5,162.5C 345.034,163.777 347.534,163.777 350,162.5C 350.566,160.277 351.4,158.277 352.5,156.5C 352.12,158.698 352.787,160.365 354.5,161.5C 354.771,163.38 354.104,164.713 352.5,165.5C 352.798,162.664 352.131,162.164 350.5,164C 346.644,164.177 342.977,164.677 339.5,165.5C 338.662,165.158 338.328,164.492 338.5,163.5C 339.586,163.38 340.253,162.713 340.5,161.5C 339.844,159.547 339.511,157.547 339.5,155.5 Z"/></g>
<g><path style="opacity:1" fill="#e4bf26" d="M 196.5,153.5 C 202.842,153.334 209.175,153.5 215.5,154C 216.044,154.717 216.711,155.217 217.5,155.5C 218.434,156.568 218.768,157.901 218.5,159.5C 218.286,161.144 218.62,162.644 219.5,164C 224.489,164.499 229.489,164.666 234.5,164.5C 234.34,162.801 234.506,161.134 235,159.5C 236.352,161.594 236.852,163.927 236.5,166.5C 230.824,166.666 225.157,166.499 219.5,166C 218.473,165.487 217.473,164.987 216.5,164.5C 216.5,164.167 216.5,163.833 216.5,163.5C 216.244,161.063 215.577,158.729 214.5,156.5C 209.014,155.185 203.68,155.185 198.5,156.5C 197.094,156.027 196.427,155.027 196.5,153.5 Z"/></g>
<g><path style="opacity:1" fill="#ebca52" d="M 352.5,165.5 C 352.389,166.117 352.056,166.617 351.5,167C 347.833,167.667 344.167,167.667 340.5,167C 339.944,166.617 339.611,166.117 339.5,165.5C 339.611,166.117 339.944,166.617 340.5,167C 344.167,167.667 347.833,167.667 351.5,167C 352.056,166.617 352.389,166.117 352.5,165.5 Z"/></g>
<g><path style="opacity:1" fill="#e6c33a" d="M 387.5,108.5 C 402.676,108.171 417.676,108.504 432.5,109.5C 432.666,113.514 432.499,117.514 432,121.5C 431.823,117.644 431.323,113.977 430.5,110.5C 416.833,110.5 403.167,110.5 389.5,110.5C 389.17,128.341 389.503,146.008 390.5,163.5C 404.323,164.496 418.323,164.829 432.5,164.5C 432.335,160.818 432.501,157.152 433,153.5C 433.499,157.486 433.666,161.486 433.5,165.5C 418.167,165.5 402.833,165.5 387.5,165.5C 386.167,146.5 386.167,127.5 387.5,108.5 Z"/></g>
<g><path style="opacity:0.082" fill="#fcf8e6" d="M 405.5,154.5 C 414.167,154.5 422.833,154.5 431.5,154.5C 431.81,157.713 431.477,160.713 430.5,163.5C 430.5,160.833 430.5,158.167 430.5,155.5C 421.983,155.826 413.65,155.493 405.5,154.5 Z"/></g>
<g><path style="opacity:0.468" fill="#f4e5a5" d="M 430.5,117.5 C 430.5,118.5 430.5,119.5 430.5,120.5C 422.167,120.5 413.833,120.5 405.5,120.5C 413.918,120.104 422.251,119.104 430.5,117.5 Z"/></g>
<g><path style="opacity:0.987" fill="#ebc951" d="M 587.5,161.5 C 590.007,161.632 590.674,162.632 589.5,164.5C 588.22,165.931 586.553,166.598 584.5,166.5C 577.465,166.674 570.465,166.341 563.5,165.5C 562.697,164.577 562.53,163.577 563,162.5C 564.356,163.38 565.856,163.714 567.5,163.5C 574.317,163.936 580.984,163.269 587.5,161.5 Z"/></g>
<g><path style="opacity:0.984" fill="#e8c643" d="M 619.5,162.5 C 621.5,162.833 623.5,163.167 625.5,163.5C 631.803,164.993 638.136,164.659 644.5,162.5C 645.562,163.425 645.562,164.425 644.5,165.5C 642.162,167.04 639.495,167.706 636.5,167.5C 629.207,167.471 622.207,166.137 615.5,163.5C 616.689,162.571 618.022,162.238 619.5,162.5 Z"/></g>
<g><path style="opacity:0.966" fill="#eccc59" d="M 194.5,166.5 C 189.684,167.65 184.684,167.816 179.5,167C 178.944,166.617 178.611,166.117 178.5,165.5C 178.281,164.325 178.614,163.325 179.5,162.5C 184.715,163.747 189.715,165.08 194.5,166.5 Z"/></g>
<g><path style="opacity:0.25" fill="#f8edc3" d="M 216.5,164.5 C 217.473,164.987 218.473,165.487 219.5,166C 225.157,166.499 230.824,166.666 236.5,166.5C 230.681,167.653 224.681,167.819 218.5,167C 217.244,166.583 216.577,165.75 216.5,164.5 Z"/></g>
<g><path style="opacity:0.262" fill="#f8f1ce" d="M 329.5,164.5 C 329.833,164.5 330.167,164.5 330.5,164.5C 330.586,165.496 330.252,166.329 329.5,167C 324.648,167.815 319.981,167.648 315.5,166.5C 319.846,166.666 324.179,166.499 328.5,166C 329.056,165.617 329.389,165.117 329.5,164.5 Z"/></g>
<g><path style="opacity:0.255" fill="#f8f0cc" d="M 473.5,165.5 C 478.772,166.4 484.105,166.733 489.5,166.5C 484.684,167.65 479.684,167.816 474.5,167C 473.944,166.617 473.611,166.117 473.5,165.5 Z"/></g>
<g><path style="opacity:0.72" fill="#f5e29c" d="M 563.5,165.5 C 570.465,166.341 577.465,166.674 584.5,166.5C 577.378,169.289 570.378,168.956 563.5,165.5 Z"/></g>
<g><path style="opacity:0.396" fill="#f8ebb9" d="M 272.5,176.5 C 267.138,176.472 261.805,176.806 256.5,177.5C 259.55,176.065 262.883,175.398 266.5,175.5C 268.696,175.505 270.696,175.838 272.5,176.5 Z"/></g>
<g><path style="opacity:0.447" fill="#f8ebbc" d="M 569.5,176.5 C 564.13,176.392 558.797,176.725 553.5,177.5C 556.356,175.994 559.523,175.328 563,175.5C 565.361,175.504 567.527,175.837 569.5,176.5 Z"/></g>
<g><path style="opacity:1" fill="#e6c233" d="M 230.5,179.5 C 231.326,181.264 232.659,182.598 234.5,183.5C 234.738,185.404 235.738,186.738 237.5,187.5C 237.5,189.5 237.5,191.5 237.5,193.5C 236.209,193.263 235.209,193.596 234.5,194.5C 231.001,195.444 227.668,195.444 224.5,194.5C 224.598,192.447 223.931,190.78 222.5,189.5C 220.18,187.774 217.513,187.107 214.5,187.5C 212.5,187.5 211.5,188.5 211.5,190.5C 209.406,197.127 209.24,203.794 211,210.5C 213.439,215.45 217.272,216.783 222.5,214.5C 224.5,214.5 225.5,213.5 225.5,211.5C 225.328,210.508 225.662,209.842 226.5,209.5C 229.054,208.612 231.721,208.279 234.5,208.5C 236.099,208.232 237.432,208.566 238.5,209.5C 238.326,211.861 237.993,214.194 237.5,216.5C 235.417,220.918 232.084,223.918 227.5,225.5C 225.214,225.595 223.214,226.262 221.5,227.5C 218.771,228.53 216.104,228.53 213.5,227.5C 211.485,226.076 209.152,225.41 206.5,225.5C 206.027,224.094 205.027,223.427 203.5,223.5C 203.027,222.094 202.027,221.427 200.5,221.5C 199.5,221.167 198.833,220.5 198.5,219.5C 198.573,217.973 197.906,216.973 196.5,216.5C 197.099,213.052 196.099,210.386 193.5,208.5C 192.35,203.684 192.184,198.684 193,193.5C 193.67,190.826 194.837,188.493 196.5,186.5C 198.262,185.738 199.262,184.404 199.5,182.5C 200.802,180.178 202.802,178.845 205.5,178.5C 207.153,178.34 208.486,177.674 209.5,176.5C 216.999,174.593 223.999,175.593 230.5,179.5 Z"/></g>
<g><path style="opacity:1" fill="#e5c12d" d="M 272.5,176.5 C 275.649,176.415 278.316,177.415 280.5,179.5C 281.785,181.452 283.451,183.118 285.5,184.5C 285.738,186.404 286.738,187.738 288.5,188.5C 291.995,196.296 292.328,204.296 289.5,212.5C 288.326,213.514 287.66,214.847 287.5,216.5C 285.438,220.895 282.104,223.895 277.5,225.5C 275.5,225.833 273.5,226.167 271.5,226.5C 266.138,226.528 260.805,226.194 255.5,225.5C 255.027,224.094 254.027,223.427 252.5,223.5C 251.738,221.738 250.404,220.738 248.5,220.5C 248.446,218.368 247.446,217.035 245.5,216.5C 245.5,216.167 245.5,215.833 245.5,215.5C 244.669,212.341 243.669,209.341 242.5,206.5C 242.181,201.637 242.514,196.97 243.5,192.5C 246.025,189.541 248.025,186.208 249.5,182.5C 250.262,180.738 251.596,179.738 253.5,179.5C 255.027,179.573 256.027,178.906 256.5,177.5C 261.805,176.806 267.138,176.472 272.5,176.5 Z M 272.5,190.5 C 272.858,193.689 273.525,196.689 274.5,199.5C 274.5,201.167 274.5,202.833 274.5,204.5C 273.525,207.311 272.858,210.311 272.5,213.5C 269.482,215.463 266.149,215.963 262.5,215C 259.097,207.078 258.597,198.911 261,190.5C 264.876,186.567 268.71,186.567 272.5,190.5 Z"/></g>
<g><path style="opacity:0.742" fill="#f6e6ab" d="M 312.5,179.5 C 311.711,179.217 311.044,178.717 310.5,178C 305.845,177.501 301.179,177.334 296.5,177.5C 296.5,193.833 296.5,210.167 296.5,226.5C 295.173,209.995 295.173,193.329 296.5,176.5C 301.537,175.124 306.537,175.29 311.5,177C 312.252,177.671 312.586,178.504 312.5,179.5 Z"/></g>
<g><path style="opacity:1" fill="#e5c12e" d="M 401.5,176.5 C 403.214,177.738 405.214,178.405 407.5,178.5C 408.035,180.446 409.368,181.446 411.5,181.5C 411.738,183.404 412.738,184.738 414.5,185.5C 415.674,186.514 416.34,187.847 416.5,189.5C 416.5,190.833 416.5,192.167 416.5,193.5C 414.901,193.232 413.568,193.566 412.5,194.5C 409.201,195.376 405.868,195.543 402.5,195C 401.62,193.644 401.286,192.144 401.5,190.5C 401.5,188.5 400.5,187.5 398.5,187.5C 394.379,186.658 391.379,187.991 389.5,191.5C 388.778,191.918 388.278,192.584 388,193.5C 387.185,198.352 387.352,203.019 388.5,207.5C 389.051,210.056 390.051,212.389 391.5,214.5C 392.312,215.993 393.645,216.66 395.5,216.5C 396.726,216.48 397.726,216.147 398.5,215.5C 401.808,214.192 404.141,211.859 405.5,208.5C 407.833,208.5 410.167,208.5 412.5,208.5C 414.099,208.232 415.432,208.566 416.5,209.5C 416.5,211.167 416.5,212.833 416.5,214.5C 416.5,214.833 416.5,215.167 416.5,215.5C 415.5,215.5 414.5,215.5 413.5,215.5C 413.5,216.833 413.5,218.167 413.5,219.5C 408.777,225.277 402.611,228.277 395,228.5C 392.116,227.883 389.283,227.216 386.5,226.5C 386.027,225.094 385.027,224.427 383.5,224.5C 381.973,224.573 380.973,223.906 380.5,222.5C 379.833,221.167 378.833,220.167 377.5,219.5C 374.259,217.017 372.592,213.684 372.5,209.5C 372.336,202.798 372.669,196.131 373.5,189.5C 374.89,188.101 375.89,186.434 376.5,184.5C 378.167,183.5 379.5,182.167 380.5,180.5C 382.027,180.573 383.027,179.906 383.5,178.5C 385.898,178.741 387.898,178.074 389.5,176.5C 393.5,175.167 397.5,175.167 401.5,176.5 Z"/></g>
<g><path style="opacity:0.008" fill="#fbf3d5" d="M 401.5,176.5 C 403.898,176.259 405.898,176.926 407.5,178.5C 405.214,178.405 403.214,177.738 401.5,176.5 Z"/></g>
<g><path style="opacity:1" fill="#e5c12e" d="M 569.5,176.5 C 571.214,177.738 573.214,178.405 575.5,178.5C 576.035,180.446 577.368,181.446 579.5,181.5C 579.738,183.404 580.738,184.738 582.5,185.5C 583.674,186.514 584.34,187.847 584.5,189.5C 584.5,190.833 584.5,192.167 584.5,193.5C 582.901,193.232 581.568,193.566 580.5,194.5C 577.201,195.376 573.868,195.543 570.5,195C 569.62,193.644 569.286,192.144 569.5,190.5C 569.5,188.5 568.5,187.5 566.5,187.5C 562.379,186.658 559.379,187.991 557.5,191.5C 556.778,191.918 556.278,192.584 556,193.5C 555.185,198.352 555.352,203.019 556.5,207.5C 557.051,210.056 558.051,212.389 559.5,214.5C 560.312,215.993 561.645,216.66 563.5,216.5C 564.726,216.48 565.726,216.147 566.5,215.5C 569.808,214.192 572.141,211.859 573.5,208.5C 575.833,208.5 578.167,208.5 580.5,208.5C 582.099,208.232 583.432,208.566 584.5,209.5C 584.5,211.167 584.5,212.833 584.5,214.5C 584.5,214.833 584.5,215.167 584.5,215.5C 583.5,215.5 582.5,215.5 581.5,215.5C 581.5,216.833 581.5,218.167 581.5,219.5C 576.777,225.277 570.611,228.277 563,228.5C 560.116,227.883 557.283,227.216 554.5,226.5C 554.027,225.094 553.027,224.427 551.5,224.5C 549.973,224.573 548.973,223.906 548.5,222.5C 547.833,221.167 546.833,220.167 545.5,219.5C 542.259,217.017 540.592,213.684 540.5,209.5C 540.336,202.798 540.669,196.131 541.5,189.5C 541.5,189.167 541.5,188.833 541.5,188.5C 543.262,187.738 544.262,186.404 544.5,184.5C 546.167,183.5 547.5,182.167 548.5,180.5C 549.659,178.75 551.326,177.75 553.5,177.5C 558.797,176.725 564.13,176.392 569.5,176.5 Z"/></g>
<g><path style="opacity:0.004" fill="#fbf3d6" d="M 569.5,176.5 C 571.898,176.259 573.898,176.926 575.5,178.5C 573.214,178.405 571.214,177.738 569.5,176.5 Z"/></g>
<g><path style="opacity:0.749" fill="#f6e19c" d="M 645.5,178.5 C 639.591,177.545 633.591,177.211 627.5,177.5C 627.918,176.778 628.584,176.278 629.5,176C 633.833,175.333 638.167,175.333 642.5,176C 644.119,176.236 645.119,177.069 645.5,178.5 Z"/></g>
<g><path style="opacity:0.549" fill="#f8ebb9" d="M 209.5,176.5 C 208.486,177.674 207.153,178.34 205.5,178.5C 206.287,176.896 207.62,176.229 209.5,176.5 Z"/></g>
<g><path style="opacity:0.976" fill="#f1d87c" d="M 389.5,176.5 C 387.898,178.074 385.898,178.741 383.5,178.5C 385.102,176.926 387.102,176.259 389.5,176.5 Z"/></g>
<g><path style="opacity:1" fill="#e3bf22" d="M 533.5,176.5 C 533.5,193.167 533.5,209.833 533.5,226.5C 529.102,226.706 524.768,226.373 520.5,225.5C 516.479,220.804 512.812,215.804 509.5,210.5C 509.573,208.973 508.906,207.973 507.5,207.5C 507.446,205.368 506.446,204.035 504.5,203.5C 504.167,202.833 503.833,202.167 503.5,201.5C 503.44,200.957 503.107,200.624 502.5,200.5C 501.502,209.141 501.169,217.808 501.5,226.5C 497.833,226.5 494.167,226.5 490.5,226.5C 490.5,210.167 490.5,193.833 490.5,177.5C 495.167,177.5 499.833,177.5 504.5,177.5C 504.427,179.027 505.094,180.027 506.5,180.5C 506.738,182.404 507.738,183.738 509.5,184.5C 509.427,186.027 510.094,187.027 511.5,187.5C 511.738,189.404 512.738,190.738 514.5,191.5C 514.427,193.027 515.094,194.027 516.5,194.5C 516.738,196.404 517.738,197.738 519.5,198.5C 519.783,199.289 520.283,199.956 521,200.5C 521.198,192.422 521.698,184.422 522.5,176.5C 526.268,175.213 529.935,175.213 533.5,176.5 Z"/></g>
<g><path style="opacity:0.478" fill="#f4e5a6" d="M 533.5,176.5 C 534.497,193.325 534.83,210.325 534.5,227.5C 530.154,227.666 525.821,227.499 521.5,227C 520.944,226.617 520.611,226.117 520.5,225.5C 524.768,226.373 529.102,226.706 533.5,226.5C 533.5,209.833 533.5,193.167 533.5,176.5 Z"/></g>
<g><path style="opacity:0.635" fill="#f6e6a9" d="M 256.5,177.5 C 256.027,178.906 255.027,179.573 253.5,179.5C 253.973,178.094 254.973,177.427 256.5,177.5 Z"/></g>
<g><path style="opacity:1" fill="#e5c12e" d="M 310.5,202.5 C 310.217,201.711 309.717,201.044 309,200.5C 308.5,209.16 308.334,217.827 308.5,226.5C 304.5,226.5 300.5,226.5 296.5,226.5C 296.5,210.167 296.5,193.833 296.5,177.5C 301.179,177.334 305.845,177.501 310.5,178C 311.044,178.717 311.711,179.217 312.5,179.5C 312.427,181.027 313.094,182.027 314.5,182.5C 314.738,184.404 315.738,185.738 317.5,186.5C 317.427,188.027 318.094,189.027 319.5,189.5C 319.738,191.404 320.738,192.738 322.5,193.5C 322.427,195.027 323.094,196.027 324.5,196.5C 325.906,196.973 326.573,197.973 326.5,199.5C 326.56,200.043 326.893,200.376 327.5,200.5C 328.498,192.528 328.831,184.528 328.5,176.5C 332.47,175.173 336.47,175.173 340.5,176.5C 341.666,193.157 341.833,209.823 341,226.5C 336.921,227.629 332.755,227.796 328.5,227C 322.115,219.041 316.115,210.874 310.5,202.5 Z"/></g>
<g><path style="opacity:0.293" fill="#f7edc1" d="M 328.5,176.5 C 328.831,184.528 328.498,192.528 327.5,200.5C 326.893,200.376 326.56,200.043 326.5,199.5C 327.167,191.833 327.833,184.167 328.5,176.5 Z"/></g>
<g><path style="opacity:0.904" fill="#f5df95" d="M 437.5,226.5 C 432.433,227.824 427.266,227.824 422,226.5C 421.333,210.167 421.333,193.833 422,177.5C 422.5,177 423,176.5 423.5,176C 428.222,175.223 432.889,175.39 437.5,176.5C 438.827,193.329 438.827,209.995 437.5,226.5 Z"/></g>
<g><path style="opacity:1" fill="#e2bd19" d="M 437.5,226.5 C 432.833,226.5 428.167,226.5 423.5,226.5C 423.5,210.167 423.5,193.833 423.5,177.5C 428.167,177.5 432.833,177.5 437.5,177.5C 437.5,193.833 437.5,210.167 437.5,226.5 Z"/></g>
<g><path style="opacity:0.784" fill="#f7e5a7" d="M 460.5,188.5 C 467.648,187.508 474.981,187.175 482.5,187.5C 482.5,184.167 482.5,180.833 482.5,177.5C 470.167,177.5 457.833,177.5 445.5,177.5C 445.5,193.833 445.5,210.167 445.5,226.5C 458.167,226.5 470.833,226.5 483.5,226.5C 483.833,226.5 484.167,226.5 484.5,226.5C 471.327,227.825 457.994,227.825 444.5,226.5C 443.349,210.211 443.182,193.878 444,177.5C 444.5,177 445,176.5 445.5,176C 457.833,175.333 470.167,175.333 482.5,176C 483.733,177.698 484.4,179.698 484.5,182C 484.333,183.833 484.167,185.667 484,187.5C 476.253,188.482 468.42,188.815 460.5,188.5 Z"/></g>
<g><path style="opacity:1" fill="#e3be1d" d="M 460.5,188.5 C 460.5,190.833 460.5,193.167 460.5,195.5C 465.363,195.181 470.03,195.514 474.5,196.5C 474.5,199.833 474.5,203.167 474.5,206.5C 469.637,206.181 464.97,206.514 460.5,207.5C 459.167,210.167 459.167,212.833 460.5,215.5C 467.982,216.492 475.648,216.825 483.5,216.5C 483.5,219.833 483.5,223.167 483.5,226.5C 470.833,226.5 458.167,226.5 445.5,226.5C 445.5,210.167 445.5,193.833 445.5,177.5C 457.833,177.5 470.167,177.5 482.5,177.5C 482.5,180.833 482.5,184.167 482.5,187.5C 474.981,187.175 467.648,187.508 460.5,188.5 Z"/></g>
<g><path style="opacity:0.11" fill="#fbf7e7" d="M 522.5,176.5 C 521.698,184.422 521.198,192.422 521,200.5C 520.283,199.956 519.783,199.289 519.5,198.5C 519.848,190.943 520.848,183.61 522.5,176.5 Z"/></g>
<g><path style="opacity:1" fill="#e8c540" d="M 591.5,175.5 C 596.43,175.197 601.263,175.531 606,176.5C 606.825,193.407 606.658,210.241 605.5,227C 600.249,227.804 595.082,227.637 590,226.5C 589.333,210.167 589.333,193.833 590,177.5C 590.717,176.956 591.217,176.289 591.5,175.5 Z"/></g>
<g><path style="opacity:1" fill="#e4c02a" d="M 627.5,177.5 C 633.591,177.211 639.591,177.545 645.5,178.5C 646.458,180.302 647.125,182.302 647.5,184.5C 647.12,186.698 647.787,188.365 649.5,189.5C 652.973,199.028 656.306,208.695 659.5,218.5C 659.833,221.167 660.167,223.833 660.5,226.5C 655.5,226.5 650.5,226.5 645.5,226.5C 643.928,223.785 642.928,220.785 642.5,217.5C 637.456,217.173 632.456,217.506 627.5,218.5C 626.67,221.016 625.67,223.35 624.5,225.5C 620.265,226.436 615.931,226.769 611.5,226.5C 611.5,225.167 611.5,223.833 611.5,222.5C 611.232,220.901 611.566,219.568 612.5,218.5C 614.897,215.691 616.23,212.358 616.5,208.5C 616.5,208.167 616.5,207.833 616.5,207.5C 618.897,204.691 620.23,201.358 620.5,197.5C 620.232,195.901 620.566,194.568 621.5,193.5C 622.962,192.199 624.296,190.699 625.5,189C 625.005,186.991 625.005,184.824 625.5,182.5C 625.402,180.447 626.069,178.78 627.5,177.5 Z M 635.5,194.5 C 635.928,197.785 636.928,200.785 638.5,203.5C 636.307,204.797 633.973,204.797 631.5,203.5C 632.577,201.271 633.244,198.937 633.5,196.5C 633.5,196.167 633.5,195.833 633.5,195.5C 634.167,195.167 634.833,194.833 635.5,194.5 Z"/></g>
<g><path style="opacity:0.761" fill="#f4df94" d="M 383.5,178.5 C 383.027,179.906 382.027,180.573 380.5,180.5C 380.973,179.094 381.973,178.427 383.5,178.5 Z"/></g>
<g><path style="opacity:0.929" fill="#f5e099" d="M 407.5,178.5 C 409.23,179.026 410.564,180.026 411.5,181.5C 409.368,181.446 408.035,180.446 407.5,178.5 Z"/></g>
<g><path style="opacity:0.781" fill="#f1d97e" d="M 504.5,177.5 C 499.833,177.5 495.167,177.5 490.5,177.5C 490.5,193.833 490.5,210.167 490.5,226.5C 494.167,226.5 497.833,226.5 501.5,226.5C 501.833,226.5 502.167,226.5 502.5,226.5C 498.366,227.485 494.032,227.818 489.5,227.5C 489.167,210.487 489.501,193.487 490.5,176.5C 492.608,175.898 494.775,175.565 497,175.5C 499.866,175.3 502.366,175.967 504.5,177.5 Z"/></g>
<g><path style="opacity:0.443" fill="#f6e7ad" d="M 504.5,177.5 C 505.906,177.973 506.573,178.973 506.5,180.5C 505.094,180.027 504.427,179.027 504.5,177.5 Z"/></g>
<g><path style="opacity:0.918" fill="#f5e19a" d="M 575.5,178.5 C 577.23,179.026 578.564,180.026 579.5,181.5C 577.368,181.446 576.035,180.446 575.5,178.5 Z"/></g>
<g><path style="opacity:0.467" fill="#f7e7af" d="M 230.5,179.5 C 232.773,179.957 234.106,181.29 234.5,183.5C 232.659,182.598 231.326,181.264 230.5,179.5 Z"/></g>
<g><path style="opacity:0.553" fill="#f6e5a8" d="M 280.5,179.5 C 283.189,180.189 284.856,181.856 285.5,184.5C 283.451,183.118 281.785,181.452 280.5,179.5 Z"/></g>
<g><path style="opacity:0.459" fill="#f6e7ac" d="M 312.5,179.5 C 313.906,179.973 314.573,180.973 314.5,182.5C 313.094,182.027 312.427,181.027 312.5,179.5 Z"/></g>
<g><path style="opacity:0.518" fill="#f6e8b1" d="M 380.5,180.5 C 379.5,182.167 378.167,183.5 376.5,184.5C 376.833,182.167 378.167,180.833 380.5,180.5 Z"/></g>
<g><path style="opacity:0.522" fill="#f6e8af" d="M 548.5,180.5 C 547.5,182.167 546.167,183.5 544.5,184.5C 544.833,182.167 546.167,180.833 548.5,180.5 Z"/></g>
<g><path style="opacity:0.792" fill="#f5e39f" d="M 411.5,181.5 C 413.262,182.262 414.262,183.596 414.5,185.5C 412.738,184.738 411.738,183.404 411.5,181.5 Z"/></g>
<g><path style="opacity:0.58" fill="#f6e4a3" d="M 506.5,180.5 C 508.262,181.262 509.262,182.596 509.5,184.5C 507.738,183.738 506.738,182.404 506.5,180.5 Z"/></g>
<g><path style="opacity:0.765" fill="#f6e4a1" d="M 579.5,181.5 C 581.262,182.262 582.262,183.596 582.5,185.5C 580.738,184.738 579.738,183.404 579.5,181.5 Z"/></g>
<g><path style="opacity:0.761" fill="#f5e39f" d="M 199.5,182.5 C 199.262,184.404 198.262,185.738 196.5,186.5C 196.738,184.596 197.738,183.262 199.5,182.5 Z"/></g>
<g><path style="opacity:0.592" fill="#f5e3a1" d="M 314.5,182.5 C 316.262,183.262 317.262,184.596 317.5,186.5C 315.738,185.738 314.738,184.404 314.5,182.5 Z"/></g>
<g><path style="opacity:0.596" fill="#f6e4a4" d="M 234.5,183.5 C 236.262,184.262 237.262,185.596 237.5,187.5C 235.738,186.738 234.738,185.404 234.5,183.5 Z"/></g>
<g><path style="opacity:1" fill="#f1d77a" d="M 249.5,182.5 C 248.025,186.208 246.025,189.541 243.5,192.5C 244.272,188.402 246.272,185.069 249.5,182.5 Z"/></g>
<g><path style="opacity:0.58" fill="#f5e3a1" d="M 285.5,184.5 C 287.262,185.262 288.262,186.596 288.5,188.5C 286.738,187.738 285.738,186.404 285.5,184.5 Z"/></g>
<g><path style="opacity:0.498" fill="#f7e7ad" d="M 376.5,184.5 C 375.89,186.434 374.89,188.101 373.5,189.5C 373.273,187.067 374.273,185.401 376.5,184.5 Z"/></g>
<g><path style="opacity:0.467" fill="#f6e6ab" d="M 509.5,184.5 C 510.906,184.973 511.573,185.973 511.5,187.5C 510.094,187.027 509.427,186.027 509.5,184.5 Z"/></g>
<g><path style="opacity:0.502" fill="#f7e7ad" d="M 544.5,184.5 C 544.262,186.404 543.262,187.738 541.5,188.5C 541.738,186.596 542.738,185.262 544.5,184.5 Z"/></g>
<g><path style="opacity:0.471" fill="#f9eec4" d="M 398.5,187.5 C 400.5,187.5 401.5,188.5 401.5,190.5C 400.167,189.833 399.167,188.833 398.5,187.5 Z"/></g>
<g><path style="opacity:0.478" fill="#f9edc3" d="M 566.5,187.5 C 568.5,187.5 569.5,188.5 569.5,190.5C 568.167,189.833 567.167,188.833 566.5,187.5 Z"/></g>
<g><path style="opacity:1" fill="#eed167" d="M 625.5,182.5 C 625.005,184.824 625.005,186.991 625.5,189C 624.296,190.699 622.962,192.199 621.5,193.5C 622.459,189.617 623.792,185.95 625.5,182.5 Z"/></g>
<g><path style="opacity:0.769" fill="#f5e4a1" d="M 647.5,184.5 C 648.537,185.93 649.204,187.597 649.5,189.5C 647.787,188.365 647.12,186.698 647.5,184.5 Z"/></g>
<g><path style="opacity:0.502" fill="#f6e5a6" d="M 317.5,186.5 C 318.906,186.973 319.573,187.973 319.5,189.5C 318.094,189.027 317.427,188.027 317.5,186.5 Z"/></g>
<g><path style="opacity:0.055" fill="#fcf3da" d="M 214.5,187.5 C 213.833,188.833 212.833,189.833 211.5,190.5C 211.5,188.5 212.5,187.5 214.5,187.5 Z"/></g>
<g><path style="opacity:0.62" fill="#f5e39e" d="M 511.5,187.5 C 513.262,188.262 514.262,189.596 514.5,191.5C 512.738,190.738 511.738,189.404 511.5,187.5 Z"/></g>
<g><path style="opacity:0.78" fill="#f6e4a2" d="M 237.5,187.5 C 240.946,191.837 239.946,194.171 234.5,194.5C 235.209,193.596 236.209,193.263 237.5,193.5C 237.5,191.5 237.5,189.5 237.5,187.5 Z"/></g>
<g><path style="opacity:0.6" fill="#f5e39f" d="M 319.5,189.5 C 321.262,190.262 322.262,191.596 322.5,193.5C 320.738,192.738 319.738,191.404 319.5,189.5 Z"/></g>
<g><path style="opacity:0.427" fill="#f7eab8" d="M 222.5,189.5 C 223.931,190.78 224.598,192.447 224.5,194.5C 223.069,193.22 222.402,191.553 222.5,189.5 Z"/></g>
<g><path style="opacity:0.353" fill="#faf1d0" d="M 272.5,190.5 C 274.265,193.123 274.932,196.123 274.5,199.5C 273.525,196.689 272.858,193.689 272.5,190.5 Z"/></g>
<g><path style="opacity:0.631" fill="#f3e29a" d="M 416.5,189.5 C 417.451,190.919 417.784,192.585 417.5,194.5C 415.833,194.5 414.167,194.5 412.5,194.5C 413.568,193.566 414.901,193.232 416.5,193.5C 416.5,192.167 416.5,190.833 416.5,189.5 Z"/></g>
<g><path style="opacity:0.502" fill="#f5e5a6" d="M 514.5,191.5 C 515.906,191.973 516.573,192.973 516.5,194.5C 515.094,194.027 514.427,193.027 514.5,191.5 Z"/></g>
<g><path style="opacity:0.62" fill="#f3e29b" d="M 584.5,189.5 C 585.451,190.919 585.784,192.585 585.5,194.5C 583.833,194.5 582.167,194.5 580.5,194.5C 581.568,193.566 582.901,193.232 584.5,193.5C 584.5,192.167 584.5,190.833 584.5,189.5 Z"/></g>
<g><path style="opacity:0.078" fill="#f9f1cd" d="M 635.5,194.5 C 634.833,194.833 634.167,195.167 633.5,195.5C 634.032,192.54 634.699,192.207 635.5,194.5 Z"/></g>
<g><path style="opacity:0.514" fill="#f6e4a2" d="M 322.5,193.5 C 323.906,193.973 324.573,194.973 324.5,196.5C 323.094,196.027 322.427,195.027 322.5,193.5 Z"/></g>
<g><path style="opacity:0.6" fill="#f4e29d" d="M 516.5,194.5 C 518.262,195.262 519.262,196.596 519.5,198.5C 517.738,197.738 516.738,196.404 516.5,194.5 Z"/></g>
<g><path style="opacity:0.812" fill="#f3dd8c" d="M 373.5,189.5 C 372.669,196.131 372.336,202.798 372.5,209.5C 369.956,202.733 370.29,196.067 373.5,189.5 Z"/></g>
<g><path style="opacity:0.253" fill="#f6ebb9" d="M 389.5,191.5 C 388.658,196.787 388.324,202.12 388.5,207.5C 387.352,203.019 387.185,198.352 388,193.5C 388.278,192.584 388.778,191.918 389.5,191.5 Z"/></g>
<g><path style="opacity:0.843" fill="#f3dc89" d="M 541.5,189.5 C 540.669,196.131 540.336,202.798 540.5,209.5C 537.956,202.733 538.29,196.067 541.5,189.5 Z"/></g>
<g><path style="opacity:0.957" fill="#f2db85" d="M 620.5,197.5 C 620.23,201.358 618.897,204.691 616.5,207.5C 617.263,203.863 618.597,200.53 620.5,197.5 Z"/></g>
<g><path style="opacity:0.239" fill="#f7ecbc" d="M 557.5,191.5 C 556.658,196.787 556.324,202.12 556.5,207.5C 555.352,203.019 555.185,198.352 556,193.5C 556.278,192.584 556.778,191.918 557.5,191.5 Z"/></g>
<g><path style="opacity:0.298" fill="#f8efc8" d="M 310.5,202.5 C 309.507,210.65 309.174,218.983 309.5,227.5C 304.968,227.818 300.634,227.485 296.5,226.5C 300.5,226.5 304.5,226.5 308.5,226.5C 308.334,217.827 308.5,209.16 309,200.5C 309.717,201.044 310.217,201.711 310.5,202.5 Z"/></g>
<g><path style="opacity:0.69" fill="#ecd46b" d="M 503.5,201.5 C 502.507,209.65 502.174,217.983 502.5,226.5C 502.167,226.5 501.833,226.5 501.5,226.5C 501.169,217.808 501.502,209.141 502.5,200.5C 503.107,200.624 503.44,200.957 503.5,201.5 Z"/></g>
<g><path style="opacity:0.342" fill="#f6eab6" d="M 346.5,204.5 C 353.313,203.509 360.313,203.175 367.5,203.5C 367.813,207.042 367.479,210.375 366.5,213.5C 366.5,210.5 366.5,207.5 366.5,204.5C 359.833,204.5 353.167,204.5 346.5,204.5 Z"/></g>
<g><path style="opacity:0.043" fill="#fdfcf6" d="M 503.5,201.5 C 503.833,202.167 504.167,202.833 504.5,203.5C 503.833,211.167 503.167,218.833 502.5,226.5C 502.174,217.983 502.507,209.65 503.5,201.5 Z"/></g>
<g><path style="opacity:0.933" fill="#f5e097" d="M 504.5,203.5 C 506.446,204.035 507.446,205.368 507.5,207.5C 506.026,206.564 505.026,205.23 504.5,203.5 Z"/></g>
<g><path style="opacity:0.056" fill="#fbf4dc" d="M 633.5,196.5 C 633.244,198.937 632.577,201.271 631.5,203.5C 633.973,204.797 636.307,204.797 638.5,203.5C 639.043,203.56 639.376,203.893 639.5,204.5C 636.572,205.484 633.572,205.817 630.5,205.5C 630.528,202.084 631.528,199.084 633.5,196.5 Z"/></g>
<g><path style="opacity:1" fill="#e6c336" d="M 346.5,204.5 C 353.167,204.5 359.833,204.5 366.5,204.5C 366.5,207.5 366.5,210.5 366.5,213.5C 360.021,214.491 353.354,214.824 346.5,214.5C 346.5,211.167 346.5,207.833 346.5,204.5 Z"/></g>
<g><path style="opacity:0.624" fill="#f2df91" d="M 474.5,196.5 C 475.482,199.962 475.815,203.629 475.5,207.5C 470.5,207.5 465.5,207.5 460.5,207.5C 464.97,206.514 469.637,206.181 474.5,206.5C 474.5,203.167 474.5,199.833 474.5,196.5 Z"/></g>
<g><path style="opacity:0.612" fill="#f8ebba" d="M 234.5,208.5 C 231.721,208.279 229.054,208.612 226.5,209.5C 226.75,208.078 227.583,207.078 229,206.5C 230.948,207.109 232.782,207.776 234.5,208.5 Z"/></g>
<g><path style="opacity:0.424" fill="#f6e8b1" d="M 412.5,208.5 C 410.167,208.5 407.833,208.5 405.5,208.5C 405.783,207.711 406.283,207.044 407,206.5C 408.948,207.109 410.782,207.776 412.5,208.5 Z"/></g>
<g><path style="opacity:0.416" fill="#f6e9b2" d="M 580.5,208.5 C 578.167,208.5 575.833,208.5 573.5,208.5C 573.783,207.711 574.283,207.044 575,206.5C 576.948,207.109 578.782,207.776 580.5,208.5 Z"/></g>
<g><path style="opacity:0.008" fill="#fbf4db" d="M 507.5,207.5 C 508.906,207.973 509.573,208.973 509.5,210.5C 508.094,210.027 507.427,209.027 507.5,207.5 Z"/></g>
<g><path style="opacity:1" fill="#f1d67a" d="M 193.5,208.5 C 196.099,210.386 197.099,213.052 196.5,216.5C 194.733,214.208 193.733,211.542 193.5,208.5 Z"/></g>
<g><path style="opacity:0.055" fill="#faf2d3" d="M 242.5,206.5 C 243.669,209.341 244.669,212.341 245.5,215.5C 243.138,213.081 242.138,210.081 242.5,206.5 Z"/></g>
<g><path style="opacity:0.733" fill="#f6e5a7" d="M 416.5,209.5 C 418.851,210.916 418.851,212.583 416.5,214.5C 416.5,212.833 416.5,211.167 416.5,209.5 Z"/></g>
<g><path style="opacity:0.714" fill="#f6e6aa" d="M 584.5,209.5 C 586.851,210.916 586.851,212.583 584.5,214.5C 584.5,212.833 584.5,211.167 584.5,209.5 Z"/></g>
<g><path style="opacity:0.761" fill="#f7e6ac" d="M 274.5,204.5 C 274.664,207.187 274.497,209.854 274,212.5C 273.617,213.056 273.117,213.389 272.5,213.5C 272.858,210.311 273.525,207.311 274.5,204.5 Z"/></g>
<g><path style="opacity:0.914" fill="#f4de92" d="M 616.5,208.5 C 616.23,212.358 614.897,215.691 612.5,218.5C 613.263,214.863 614.597,211.53 616.5,208.5 Z"/></g>
<g><path style="opacity:0.573" fill="#f6e6aa" d="M 225.5,211.5 C 225.5,213.5 224.5,214.5 222.5,214.5C 223.167,213.167 224.167,212.167 225.5,211.5 Z"/></g>
<g><path style="opacity:0.004" fill="#fcf6e0" d="M 238.5,209.5 C 239.867,212.012 239.534,214.345 237.5,216.5C 237.993,214.194 238.326,211.861 238.5,209.5 Z"/></g>
<g><path style="opacity:0.09" fill="#fbf4d9" d="M 460.5,207.5 C 460.5,209.833 460.5,212.167 460.5,214.5C 468.352,214.175 476.018,214.508 483.5,215.5C 475.833,215.5 468.167,215.5 460.5,215.5C 459.167,212.833 459.167,210.167 460.5,207.5 Z"/></g>
<g><path style="opacity:0.989" fill="#e2e3e4" d="M 158.5,217.5 C 158.866,218.695 159.699,219.361 161,219.5C 162.944,218.561 164.611,217.227 166,215.5C 171.42,220.423 176.587,225.423 181.5,230.5C 180.577,229.697 179.577,229.53 178.5,230C 169.903,238.653 161.403,247.486 153,256.5C 152.333,257.167 152.333,257.833 153,258.5C 159.617,266.605 166.784,274.105 174.5,281C 183.225,285.129 191.225,284.129 198.5,278C 201.811,275.205 204.477,272.039 206.5,268.5C 200.741,283.876 190.075,288.709 174.5,283C 161.692,270.962 149.192,258.462 137,245.5C 136.333,243.833 136.333,242.167 137,240.5C 138.236,239.601 139.07,238.434 139.5,237C 136.022,233.522 132.522,230.022 129,226.5C 111.17,239.064 91.3366,243.564 69.5,240C 36.9,232.407 15.4,212.574 5,180.5C -1.92512,146.434 7.90822,118.434 34.5,96.5C 36.7374,94.2519 39.4041,92.9186 42.5,92.5C 43.0065,91.1411 44.0065,90.1411 45.5,89.5C 82.6253,73.58 115.459,79.58 144,107.5C 165.408,134.422 169.408,163.755 156,195.5C 153.881,199.594 151.381,203.428 148.5,207C 152.169,210.161 155.502,213.661 158.5,217.5 Z M 104.5,156.5 C 105.815,167.706 101.481,175.872 91.5,181C 80.9069,184.078 71.9069,181.578 64.5,173.5C 63.7362,170.982 62.7362,168.649 61.5,166.5C 59.9579,155.072 63.9579,146.405 73.5,140.5C 88.9032,136.035 99.2365,141.368 104.5,156.5 Z"/></g>
<g><path style="opacity:0.933" fill="#7e8691" d="M 158.5,140.5 C 159.117,140.611 159.617,140.944 160,141.5C 161.514,150.641 161.681,159.641 160.5,168.5C 160.494,159.112 159.828,149.779 158.5,140.5 Z"/></g>
<g><path style="opacity:0.886" fill="#858c96" d="M 12.5,128.5 C 9.70058,137.2 7.03391,145.867 4.5,154.5C 5.03395,148.08 6.20061,141.747 8,135.5C 9.00762,132.696 10.5076,130.363 12.5,128.5 Z"/></g>
<g><path style="opacity:1" fill="#555e6d" d="M 69.5,83.5 C 85.4866,81.943 100.82,84.2764 115.5,90.5C 138.386,99.7251 152.719,116.392 158.5,140.5C 159.828,149.779 160.494,159.112 160.5,168.5C 160.074,174.953 158.907,181.286 157,187.5C 153.169,193.663 150.002,200.163 147.5,207C 150.696,211.919 154.363,216.419 158.5,220.5C 153.066,225.223 148.066,230.39 143.5,236C 142.833,236.667 142.167,236.667 141.5,236C 137.652,231.984 133.652,228.151 129.5,224.5C 98.8602,244.3 68.1935,244.467 37.5,225C 19.902,210.764 9.06865,192.597 5,170.5C 4.50065,165.177 4.33398,159.844 4.5,154.5C 7.03391,145.867 9.70058,137.2 12.5,128.5C 13.0922,125.309 14.2589,122.309 16,119.5C 19.6667,114.833 23.3333,110.167 27,105.5C 32.0646,100.926 37.2312,96.5926 42.5,92.5C 47.3822,91.9292 51.7156,90.0959 55.5,87C 60.2356,86.0206 64.9023,84.8539 69.5,83.5 Z M 104.5,156.5 C 105.815,167.706 101.481,175.872 91.5,181C 80.9069,184.078 71.9069,181.578 64.5,173.5C 63.7362,170.982 62.7362,168.649 61.5,166.5C 59.9579,155.072 63.9579,146.405 73.5,140.5C 88.9032,136.035 99.2365,141.368 104.5,156.5 Z"/></g>
<g><path style="opacity:1" fill="#bfad7c" d="M 63.5,213.5 C 63.8333,213.5 64.1667,213.5 64.5,213.5C 75.7298,215.741 87.0632,216.075 98.5,214.5C 93.5324,216.759 88.1991,217.759 82.5,217.5C 77.7875,217.414 73.1208,216.914 68.5,216C 66.3474,215.901 64.6808,215.067 63.5,213.5 Z"/></g>
<g><path style="opacity:1" fill="#9d9476" d="M 114.5,207.5 C 112.879,209.942 110.546,211.275 107.5,211.5C 109.566,209.801 111.9,208.468 114.5,207.5 Z"/></g>
<g><path style="opacity:1" fill="#938c75" d="M 137.5,176.5 C 137.23,180.358 135.897,183.691 133.5,186.5C 133.343,185.127 133.51,183.793 134,182.5C 135.082,180.382 136.249,178.382 137.5,176.5 Z"/></g>
<g><path style="opacity:0.184" fill="#fef3e7" d="M 104.5,156.5 C 105.167,157.833 105.833,159.167 106.5,160.5C 106.5,160.833 106.5,161.167 106.5,161.5C 105.149,172.693 99.1494,180.193 88.5,184C 83.4724,184.588 78.4724,184.422 73.5,183.5C 69.7946,180.795 66.7946,177.462 64.5,173.5C 71.9069,181.578 80.9069,184.078 91.5,181C 101.481,175.872 105.815,167.706 104.5,156.5 Z"/></g>
<g><path style="opacity:0.059" fill="#feeae9" d="M 61.5,166.5 C 62.7362,168.649 63.7362,170.982 64.5,173.5C 62.1663,171.824 61.1663,169.491 61.5,166.5 Z"/></g>
<g><path style="opacity:1" fill="#fbda85" d="M 106.5,161.5 C 117.5,161.5 128.5,161.5 139.5,161.5C 139.374,166.586 138.707,171.586 137.5,176.5C 136.249,178.382 135.082,180.382 134,182.5C 133.51,183.793 133.343,185.127 133.5,186.5C 128.589,194.747 122.255,201.747 114.5,207.5C 111.9,208.468 109.566,209.801 107.5,211.5C 104.804,213.261 101.804,214.261 98.5,214.5C 87.0632,216.075 75.7298,215.741 64.5,213.5C 66.1494,205.218 68.8161,197.218 72.5,189.5C 73.1556,187.547 73.4889,185.547 73.5,183.5C 78.4724,184.422 83.4724,184.588 88.5,184C 99.1494,180.193 105.149,172.693 106.5,161.5 Z"/></g>
<g><path style="opacity:1" fill="#bb6c6e" d="M 35.5,130.5 C 28.2342,145.823 26.5676,161.823 30.5,178.5C 26.8118,169.975 25.6451,160.975 27,151.5C 28.5859,146.903 29.9192,142.236 31,137.5C 32.0486,134.813 33.5486,132.48 35.5,130.5 Z"/></g>
<g><path style="opacity:0.184" fill="#fdd5d3" d="M 74.5,138.5 C 74.1667,139.167 73.8333,139.833 73.5,140.5C 63.9579,146.405 59.9579,155.072 61.5,166.5C 60.8826,166.389 60.3826,166.056 60,165.5C 57.7735,155.678 60.6068,147.678 68.5,141.5C 70.2433,139.962 72.2433,138.962 74.5,138.5 Z"/></g>
<g><path style="opacity:0.043" fill="#ebf5f5" d="M 82.5,137.5 C 82.8333,137.5 83.1667,137.5 83.5,137.5C 87.7159,137.684 91.7159,138.684 95.5,140.5C 102.82,145.138 106.486,151.805 106.5,160.5C 105.833,159.167 105.167,157.833 104.5,156.5C 99.2365,141.368 88.9032,136.035 73.5,140.5C 73.8333,139.833 74.1667,139.167 74.5,138.5C 77.1272,137.908 79.7938,137.575 82.5,137.5 Z"/></g>
<g><path style="opacity:1" fill="#a8696d" d="M 40.5,124.5 C 39.5569,127.109 37.8903,129.109 35.5,130.5C 36.4735,127.865 38.1402,125.865 40.5,124.5 Z"/></g>
<g><path style="opacity:1" fill="#7ac9b6" d="M 117.5,116.5 C 133.067,127.303 140.4,142.303 139.5,161.5C 128.5,161.5 117.5,161.5 106.5,161.5C 106.5,161.167 106.5,160.833 106.5,160.5C 106.486,151.805 102.82,145.138 95.5,140.5C 96.8471,141.171 98.0138,141.171 99,140.5C 105.023,132.32 111.19,124.32 117.5,116.5 Z"/></g>
<g><path style="opacity:1" fill="#b66b6e" d="M 48.5,116.5 C 46.1667,119.5 43.5,122.167 40.5,124.5C 42.1667,120.833 44.8333,118.167 48.5,116.5 Z"/></g>
<g><path style="opacity:1" fill="#5ac3ec" d="M 117.5,116.5 C 111.19,124.32 105.023,132.32 99,140.5C 98.0138,141.171 96.8471,141.171 95.5,140.5C 91.7159,138.684 87.7159,137.684 83.5,137.5C 83.5,126.5 83.5,115.5 83.5,104.5C 96.4417,104.401 107.775,108.401 117.5,116.5 Z"/></g>
<g><path style="opacity:1" fill="#f67670" d="M 82.5,137.5 C 79.7938,137.575 77.1272,137.908 74.5,138.5C 72.2433,138.962 70.2433,139.962 68.5,141.5C 60.6068,147.678 57.7735,155.678 60,165.5C 60.3826,166.056 60.8826,166.389 61.5,166.5C 61.1663,169.491 62.1663,171.824 64.5,173.5C 66.7946,177.462 69.7946,180.795 73.5,183.5C 73.4889,185.547 73.1556,187.547 72.5,189.5C 68.8161,197.218 66.1494,205.218 64.5,213.5C 64.1667,213.5 63.8333,213.5 63.5,213.5C 46.7673,207.429 35.7673,195.762 30.5,178.5C 26.5676,161.823 28.2342,145.823 35.5,130.5C 37.8903,129.109 39.5569,127.109 40.5,124.5C 43.5,122.167 46.1667,119.5 48.5,116.5C 49.7158,114.549 51.3825,113.049 53.5,112C 62.5786,107.365 72.2453,104.865 82.5,104.5C 82.5,115.5 82.5,126.5 82.5,137.5 Z"/></g>
<g><path style="opacity:0.902" fill="#7c838e" d="M 69.5,83.5 C 83.6405,81.4642 97.6405,82.6309 111.5,87C 113.093,87.9487 114.426,89.1154 115.5,90.5C 100.82,84.2764 85.4866,81.943 69.5,83.5 Z"/></g>
<g><path style="opacity:0.153" fill="#faf0cd" d="M 289.5,212.5 C 289.771,214.38 289.104,215.713 287.5,216.5C 287.66,214.847 288.326,213.514 289.5,212.5 Z"/></g>
<g><path style="opacity:0.286" fill="#f6eab6" d="M 391.5,214.5 C 393.764,215.219 396.097,215.552 398.5,215.5C 397.726,216.147 396.726,216.48 395.5,216.5C 393.645,216.66 392.312,215.993 391.5,214.5 Z"/></g>
<g><path style="opacity:1" fill="#f1d77b" d="M 416.5,215.5 C 415.974,217.23 414.974,218.564 413.5,219.5C 413.5,218.167 413.5,216.833 413.5,215.5C 414.5,215.5 415.5,215.5 416.5,215.5 Z"/></g>
<g><path style="opacity:0.834" fill="#ebcf59" d="M 460.5,215.5 C 468.167,215.5 475.833,215.5 483.5,215.5C 484.482,218.962 484.815,222.629 484.5,226.5C 484.167,226.5 483.833,226.5 483.5,226.5C 483.5,223.167 483.5,219.833 483.5,216.5C 475.648,216.825 467.982,216.492 460.5,215.5 Z"/></g>
<g><path style="opacity:0.29" fill="#f6eab7" d="M 559.5,214.5 C 561.764,215.219 564.097,215.552 566.5,215.5C 565.726,216.147 564.726,216.48 563.5,216.5C 561.645,216.66 560.312,215.993 559.5,214.5 Z"/></g>
<g><path style="opacity:1" fill="#f2d77d" d="M 584.5,215.5 C 583.974,217.23 582.974,218.564 581.5,219.5C 581.5,218.167 581.5,216.833 581.5,215.5C 582.5,215.5 583.5,215.5 584.5,215.5 Z"/></g>
<g><path style="opacity:0.004" fill="#fcf6e1" d="M 196.5,216.5 C 197.906,216.973 198.573,217.973 198.5,219.5C 197.094,219.027 196.427,218.027 196.5,216.5 Z"/></g>
<g><path style="opacity:0.51" fill="#f8e8b0" d="M 245.5,216.5 C 247.446,217.035 248.446,218.368 248.5,220.5C 247.026,219.564 246.026,218.23 245.5,216.5 Z"/></g>
<g><path style="opacity:0.659" fill="#f6e7ab" d="M 248.5,220.5 C 250.404,220.738 251.738,221.738 252.5,223.5C 250.596,223.262 249.262,222.262 248.5,220.5 Z"/></g>
<g><path style="opacity:0.008" fill="#faf2d1" d="M 377.5,219.5 C 378.833,220.167 379.833,221.167 380.5,222.5C 378.5,222.5 377.5,221.5 377.5,219.5 Z"/></g>
<g><path style="opacity:0.012" fill="#faf1cf" d="M 545.5,219.5 C 546.833,220.167 547.833,221.167 548.5,222.5C 546.5,222.5 545.5,221.5 545.5,219.5 Z"/></g>
<g><path style="opacity:0.694" fill="#f6e4a4" d="M 200.5,221.5 C 202.027,221.427 203.027,222.094 203.5,223.5C 201.973,223.573 200.973,222.906 200.5,221.5 Z"/></g>
<g><path style="opacity:0.475" fill="#f4e4a0" d="M 203.5,223.5 C 205.027,223.427 206.027,224.094 206.5,225.5C 204.973,225.573 203.973,224.906 203.5,223.5 Z"/></g>
<g><path style="opacity:0.318" fill="#f8ebbb" d="M 252.5,223.5 C 254.027,223.427 255.027,224.094 255.5,225.5C 253.973,225.573 252.973,224.906 252.5,223.5 Z"/></g>
<g><path style="opacity:0.227" fill="#f9edc3" d="M 383.5,224.5 C 385.027,224.427 386.027,225.094 386.5,226.5C 384.973,226.573 383.973,225.906 383.5,224.5 Z"/></g>
<g><path style="opacity:0.231" fill="#f9edc2" d="M 551.5,224.5 C 553.027,224.427 554.027,225.094 554.5,226.5C 552.973,226.573 551.973,225.906 551.5,224.5 Z"/></g>
<g><path style="opacity:0.608" fill="#f5e29d" d="M 206.5,225.5 C 209.152,225.41 211.485,226.076 213.5,227.5C 210.772,227.829 208.438,227.163 206.5,225.5 Z"/></g>
<g><path style="opacity:0.008" fill="#fbf4dc" d="M 227.5,225.5 C 225.898,227.074 223.898,227.741 221.5,227.5C 223.214,226.262 225.214,225.595 227.5,225.5 Z"/></g>
<g><path style="opacity:0.843" fill="#f2da81" d="M 255.5,225.5 C 260.805,226.194 266.138,226.528 271.5,226.5C 271.5,226.833 271.5,227.167 271.5,227.5C 265.918,228.416 260.585,227.749 255.5,225.5 Z"/></g>
<g><path style="opacity:0.016" fill="#fbf4d9" d="M 277.5,225.5 C 275.898,227.074 273.898,227.741 271.5,227.5C 271.5,227.167 271.5,226.833 271.5,226.5C 273.5,226.167 275.5,225.833 277.5,225.5 Z"/></g>
<g><path style="opacity:0.127" fill="#faf3d6" d="M 611.5,222.5 C 611.5,223.833 611.5,225.167 611.5,226.5C 615.931,226.769 620.265,226.436 624.5,225.5C 620.285,227.436 615.619,228.103 610.5,227.5C 610.216,225.585 610.549,223.919 611.5,222.5 Z"/></g>
<g><path style="opacity:0.13" fill="#faf1d1" d="M 659.5,218.5 C 661.549,221.07 662.216,223.904 661.5,227C 655.984,227.817 650.65,227.651 645.5,226.5C 650.5,226.5 655.5,226.5 660.5,226.5C 660.167,223.833 659.833,221.167 659.5,218.5 Z"/></g>
<g><path style="opacity:1" fill="#c7c7c7" d="M 181.5,230.5 C 189.452,237.748 196.952,245.415 204,253.5C 206.101,257.874 206.935,262.541 206.5,267.5C 206.5,267.833 206.5,268.167 206.5,268.5C 204.477,272.039 201.811,275.205 198.5,278C 191.225,284.129 183.225,285.129 174.5,281C 166.784,274.105 159.617,266.605 153,258.5C 152.333,257.833 152.333,257.167 153,256.5C 161.403,247.486 169.903,238.653 178.5,230C 179.577,229.53 180.577,229.697 181.5,230.5 Z"/></g>
<g><path style="opacity:0.042" fill="#f6f6f6" d="M 206.5,267.5 C 206.935,262.541 206.101,257.874 204,253.5C 196.952,245.415 189.452,237.748 181.5,230.5C 176.587,225.423 171.42,220.423 166,215.5C 164.611,217.227 162.944,218.561 161,219.5C 159.699,219.361 158.866,218.695 158.5,217.5C 160.813,216.332 163.146,214.998 165.5,213.5C 166.5,214 167.5,214.5 168.5,215C 180.077,225.58 191.244,236.413 202,247.5C 206.979,253.557 208.479,260.223 206.5,267.5 Z"/></g>
</svg>
